<?xml version="1.0" encoding="utf-8"?>
<!-- Generator: Adobe Illustrator 19.2.1, SVG Export Plug-In . SVG Version: 6.00 Build 0)  -->
<svg version="1.1" xmlns="http://www.w3.org/2000/svg" xmlns:xlink="http://www.w3.org/1999/xlink" x="0px" y="0px"
	 viewBox="0 0 600 600" enable-background="new 0 0 600 600" xml:space="preserve">
<g id="Layer_2">
	<g>
		<path fill="#F2F2F2" d="M299.6,535.5c-62.9,0-122.1-24.5-166.5-69c-44.5-44.5-69-103.6-69-166.5c0-62.9,24.5-122.1,69-166.5
			c44.5-44.5,103.6-69,166.5-69s122.1,24.5,166.5,69c44.5,44.5,69,103.6,69,166.5c0,62.9-24.5,122.1-69,166.5
			C421.7,511,362.5,535.5,299.6,535.5z"/>
		<path fill="#DB3127" d="M299.6,83.5c29.2,0,57.6,5.7,84.3,17c25.8,10.9,48.9,26.5,68.8,46.4c19.9,19.9,35.5,43.1,46.4,68.8
			c11.3,26.7,17,55,17,84.3s-5.7,57.6-17,84.3c-10.9,25.8-26.5,48.9-46.4,68.8c-19.9,19.9-43.1,35.5-68.8,46.4
			c-26.7,11.3-55,17-84.3,17s-57.6-5.7-84.3-17c-25.8-10.9-48.9-26.5-68.8-46.4c-19.9-19.9-35.5-43.1-46.4-68.8
			c-11.3-26.7-17-55-17-84.3s5.7-57.6,17-84.3c10.9-25.8,26.5-48.9,46.4-68.8c19.9-19.9,43.1-35.5,68.8-46.4
			C242,89.2,270.4,83.5,299.6,83.5 M299.6,45.5C159,45.5,45.1,159.4,45.1,300s114,254.5,254.5,254.5s254.5-114,254.5-254.5
			S440.2,45.5,299.6,45.5L299.6,45.5z"/>
	</g>
</g>
<g id="Layer_1">
	<g>
		<g>
			<path d="M184.2,223.4l71.6,9.2c2.5,6.3,15.1,37.6,17.5,43.2c0,0,0,0,0,0c-20.7,10.3-41.5,20.5-62.2,30.7c7.2-1.3,14.5-2,21.8-2
				c9.6,0,19,1.2,28,3.4c18.1,4.6,34.5,12,50.3,19.1c14.1,6.3,27.4,12.4,40.8,15.8c1.9,0.5,3.7,0.9,5.5,1.3
				c-15.8-32.3-58.2-119.4-66.6-138.5c-3.9-9-9.4-12.4-17.1-13.4l-84.1-10.8c-11.6-1.5-22.2,6.7-23.7,18.3
				C164.5,211.3,172.6,221.9,184.2,223.4z"/>
			<path d="M150.4,374.4c2.3,1.7,5,2.5,7.7,2.5c0.6,0,1.2,0,1.7-0.1c3.5-0.5,6.8-2.3,9-5.4c8.5-11.9,21.7-21.2,37-26.3
				c8.8-2.9,18-4.4,27-4.4c32.8,0,60.9,19.6,90.4,30.9c15.8,6,32.4,10.5,50.4,10.5c7.6,0,15.4-0.8,23.5-2.6
				c19.1-4.2,35.5-13.3,47.3-26c2.8-3.1,5.4-6.3,7.7-9.7c4-6,2.3-14.2-3.7-18.2c-2.2-1.5-4.7-2.2-7.2-2.2c-4.3,0-8.4,2.1-11,5.9
				c-1,1.5-2.1,3-3.4,4.5c-8.2,9.8-20.5,16.8-35.3,20.1c-13.6,3-28.7,2.1-42.1-1.4c-14.1-3.7-27.8-9.8-42.3-16.4
				c-15.4-6.9-31.4-14.1-48.7-18.5c-8.2-2.1-16.8-3.1-25.5-3.1c-11.9,0-23.9,1.9-35.4,5.8c-10,3.4-19.3,8-27.7,13.9
				c-8.8,6.2-16.3,13.6-22.4,22c-0.4,0.6-0.7,1.1-1,1.7C143.5,363.4,145.1,370.5,150.4,374.4z"/>
			<circle cx="388.4" cy="267" r="46.4"/>
		</g>
	</g>
	<path d="M150.4,425.4c2.3,1.7,5,2.5,7.7,2.5c0.6,0,1.2,0,1.7-0.1c3.5-0.5,6.8-2.3,9-5.4c8.5-11.9,21.7-21.2,37-26.3
		c8.8-2.9,18-4.4,27-4.4c32.8,0,60.9,19.6,90.4,30.9c15.8,6,32.4,10.5,50.4,10.5c7.6,0,15.4-0.8,23.5-2.6
		c19.1-4.2,35.5-13.3,47.3-26c2.8-3.1,5.4-6.3,7.7-9.7c4-6,2.3-14.2-3.7-18.2c-2.2-1.5-4.7-2.2-7.2-2.2c-4.3,0-8.4,2.1-11,5.9
		c-1,1.5-2.1,3-3.4,4.5c-8.2,9.8-20.5,16.8-35.3,20.1c-13.6,3-28.7,2.1-42.1-1.4c-14.1-3.7-27.8-9.8-42.3-16.4
		c-15.4-6.9-31.4-14.1-48.7-18.5c-8.2-2.1-16.8-3.1-25.5-3.1c-11.9,0-23.9,1.9-35.4,5.8c-10,3.4-19.3,8-27.7,13.9
		c-8.8,6.2-16.3,13.6-22.4,22c-0.4,0.6-0.7,1.1-1,1.7C143.5,414.4,145.1,421.5,150.4,425.4z"/>
</g>
<g id="Layer_4">
	<line fill="none" stroke="#DB3127" stroke-width="43" stroke-miterlimit="10" x1="119.7" y1="458.6" x2="478.3" y2="139.9"/>
</g>
<g id="Layer_3">
</g>
</svg>
