<?xml version="1.0" encoding="utf-8"?>
<!-- Generator: Adobe Illustrator 19.2.1, SVG Export Plug-In . SVG Version: 6.00 Build 0)  -->
<svg version="1.1" id="Layer_4" xmlns="http://www.w3.org/2000/svg" xmlns:xlink="http://www.w3.org/1999/xlink" x="0px" y="0px"
	 viewBox="0 0 800 600" enable-background="new 0 0 800 600" xml:space="preserve">
<path fill-rule="evenodd" clip-rule="evenodd" fill="#FFFFFF" d="M636.2,169.2c0-0.6-0.1-1.1-0.3-1.4c-0.1-0.3-0.3-0.6-0.6-0.7
	c-0.2-0.1-0.6-0.2-0.9-0.3l-1.9-0.3c-0.2,0-0.3-0.2-0.3-0.5c0-0.3,0-0.6,0.1-0.8c1,0,1.9,0.1,2.9,0.1c1,0,1.9,0,2.9,0
	c0.9,0,1.9,0,3,0c1.1,0,2.1-0.1,3-0.1c0.1,0.2,0.1,0.4,0.1,0.8c0,0.2,0,0.3,0,0.4c0,0.1-0.1,0.1-0.3,0.2l-1.3,0.2
	c-0.3,0.1-0.6,0.2-0.8,0.3c-0.2,0.2-0.3,0.4-0.4,0.8c-0.1,0.3-0.2,0.8-0.2,1.3c0,0.5,0,1.2,0,2.1v2.2c0,1.3,0.1,2.2,0.2,2.8
	c0.2,0.6,0.3,1,0.5,1.2c-0.1,0.1-0.1,0.1-0.1,0.2c0,0.1-0.1,0.2-0.1,0.2c-1.9,0.7-3.9,1.3-6,1.7c-2.1,0.4-4.2,0.6-6.3,0.6
	c-2.6,0-5.1-0.4-7.4-1.2c-2.3-0.8-4.3-1.9-6-3.5c-1.7-1.5-3-3.3-4-5.5c-1-2.1-1.5-4.5-1.5-7.2c0-2.7,0.5-5.2,1.5-7.3
	c1-2.1,2.3-3.9,4-5.4c1.7-1.5,3.7-2.6,5.9-3.3c2.3-0.8,4.6-1.1,7.1-1.1c2.4,0,4.6,0.2,6.6,0.6c2,0.4,3.8,0.8,5.3,1.4
	c0.1,0.1,0.2,0.1,0.2,0.2c0.1,0.1,0.2,0.1,0.2,0.2c0,0.4,0,0.8,0.1,1.3c0,0.5,0.1,1.1,0.1,1.7c0.1,0.6,0.1,1.2,0.2,1.7
	c0.1,0.6,0.1,1,0.2,1.4c-0.1,0-0.2,0.1-0.3,0.1c-0.1,0.1-0.3,0.1-0.5,0.1c-0.4,0-0.6-0.1-0.7-0.3c-0.4-1.3-1-2.3-1.8-3.1
	c-0.8-0.8-1.7-1.5-2.7-2c-1-0.5-2.1-0.9-3.4-1.1c-1.2-0.2-2.4-0.3-3.6-0.3c-2.1,0-3.9,0.4-5.6,1.1c-1.6,0.7-3,1.7-4.1,3
	c-1.1,1.3-2,2.8-2.5,4.5c-0.6,1.7-0.9,3.6-0.9,5.6c0,2.4,0.3,4.5,1,6.6c0.7,2,1.6,3.8,2.8,5.3c1.2,1.5,2.7,2.7,4.4,3.5
	c1.7,0.9,3.7,1.3,5.9,1.3c1.1,0,2.2-0.1,3.2-0.5c1-0.3,2-0.8,2.8-1.5c0.1-0.3,0.1-0.6,0.1-1.1c0-0.4,0.1-1,0.1-1.5v-2.1
	C636.3,170.7,636.2,169.8,636.2,169.2z M604.3,147.9c-0.4,0.1-0.7,0.2-1,0.5c-0.3,0.3-0.5,0.7-0.6,1.3c-0.1,0.6-0.2,1.4-0.3,2.3
	c0,1-0.1,2.2-0.1,3.7v15.2c0,0.9,0,1.8,0,2.7c0,0.9,0,1.8,0.1,2.6c0,0.8,0.1,1.5,0.1,2.2c0,0.7,0.1,1.2,0.1,1.6
	c-0.2,0-0.4,0.1-0.8,0.1c-0.4,0-0.7,0-1,0c-0.2,0-0.3,0-0.3-0.1c-0.1-0.1-0.1-0.1-0.2-0.2c-0.3-0.4-0.6-0.8-1.1-1.4
	c-0.5-0.6-1.1-1.3-1.8-2.1l-19.9-23.2h-0.2v16.8c0,1.5,0,2.8,0.1,3.8c0.1,1,0.2,1.8,0.4,2.4c0.2,0.6,0.5,1,0.8,1.3
	c0.3,0.3,0.7,0.4,1.2,0.5l1.7,0.3c0.2,0,0.2,0.1,0.3,0.2c0,0.1,0,0.2,0,0.4c0,0.3,0,0.5-0.1,0.7c-0.9,0-1.8-0.1-2.7-0.1
	c-0.9,0-1.8,0-2.7,0c-0.9,0-1.8,0-2.6,0c-0.8,0-1.7,0.1-2.6,0.1c-0.1-0.2-0.1-0.4-0.1-0.7c0-0.4,0.1-0.5,0.3-0.6l1.5-0.2
	c0.4-0.1,0.7-0.2,1-0.5c0.3-0.3,0.5-0.7,0.6-1.3c0.1-0.6,0.2-1.4,0.3-2.3c0-1,0.1-2.2,0.1-3.7v-17.7c0-0.8-0.1-1.4-0.3-1.9
	c-0.2-0.5-0.4-0.9-0.8-1.3c-0.5-0.5-0.8-0.9-1.2-1c-0.3-0.1-0.7-0.2-1-0.3l-1.3-0.1c-0.2,0-0.3-0.2-0.3-0.6c0-0.2,0-0.3,0-0.5
	c0-0.2,0.1-0.3,0.1-0.3c0.7,0,1.3,0.1,1.8,0.1c0.5,0,1.1,0,1.7,0c0.3,0,0.6,0,1,0c0.4,0,0.8,0,1.2,0c0.4,0,0.9,0,1.3-0.1
	c0.4,0,0.8,0,1.1-0.1c0.2,0,0.4,0.1,0.5,0.2c0.6,0.7,1.2,1.5,1.9,2.4c0.7,0.9,1.7,2.1,2.9,3.5l16.1,19h0.1V156c0-1.5,0-2.8-0.1-3.8
	c-0.1-1-0.2-1.8-0.4-2.4c-0.2-0.6-0.5-1-0.8-1.3c-0.3-0.2-0.7-0.4-1.2-0.5l-1.7-0.3c-0.2,0-0.3-0.2-0.3-0.6c0-0.3,0-0.5,0.1-0.7
	c0.9,0,1.8,0.1,2.7,0.1c0.9,0,1.8,0,2.7,0c0.9,0,1.8,0,2.6,0c0.8,0,1.7-0.1,2.6-0.1c0.1,0.2,0.1,0.4,0.1,0.7c0,0.4-0.1,0.5-0.3,0.6
	L604.3,147.9z M558.9,175.2c0,0.7,0.1,1.2,0.2,1.5c0.1,0.4,0.2,0.6,0.4,0.8c0.2,0.2,0.4,0.3,0.7,0.3l1.7,0.3c0.2,0,0.3,0.2,0.3,0.6
	c0,0.3,0,0.5-0.1,0.7c-1,0-1.9-0.1-2.9-0.1c-1,0-1.9,0-2.8,0c-0.9,0-1.9,0-2.9,0c-1,0-2,0.1-3,0.1c-0.1-0.2-0.1-0.4-0.1-0.7
	c0-0.4,0.1-0.5,0.3-0.6l1.7-0.3c0.3,0,0.6-0.1,0.8-0.3c0.2-0.2,0.3-0.5,0.4-0.8c0.1-0.4,0.2-0.9,0.2-1.5c0-0.6,0-1.4,0-2.4v-19.7
	c0-1,0-1.8,0-2.4c0-0.6-0.1-1.2-0.2-1.5c-0.1-0.4-0.2-0.6-0.4-0.8c-0.2-0.2-0.4-0.3-0.8-0.3l-1.7-0.3c-0.2,0-0.3-0.2-0.3-0.6
	c0-0.3,0-0.5,0.1-0.7c1,0,1.9,0.1,2.9,0.1c1,0,1.9,0,2.8,0c0.9,0,1.9,0,3,0c1,0,2-0.1,3-0.1c0.1,0.2,0.1,0.4,0.1,0.7
	c0,0.4-0.1,0.5-0.3,0.6l-1.7,0.3c-0.3,0.1-0.6,0.2-0.7,0.3c-0.2,0.2-0.3,0.4-0.4,0.8c-0.1,0.4-0.2,0.9-0.2,1.5c0,0.6,0,1.4,0,2.4
	v19.7C558.8,173.8,558.8,174.6,558.9,175.2z M537.6,174.6c-1.8,1.8-3.9,3-6.2,3.7c-2.3,0.7-4.6,1-7,1h-9.8c-1.2,0-2.3,0-3.2,0
	c-0.9,0-1.7,0.1-2.4,0.1c-0.1-0.2-0.1-0.4-0.1-0.7c0-0.4,0.1-0.5,0.3-0.6l1.7-0.3c0.3,0,0.6-0.1,0.8-0.3c0.2-0.2,0.3-0.5,0.4-0.8
	c0.1-0.4,0.2-0.9,0.2-1.5c0-0.6,0-1.4,0-2.4v-19.7c0-1,0-1.8,0-2.4c0-0.6-0.1-1.2-0.2-1.6c-0.1-0.4-0.2-0.7-0.4-0.8
	c-0.2-0.2-0.4-0.3-0.8-0.3l-1.7-0.3c-0.2,0-0.3-0.2-0.3-0.5c0-0.3,0-0.5,0.1-0.7c0.6,0.1,1.3,0.1,2.2,0.1c0.9,0,1.8,0,2.6,0
	c1.7,0,3.3-0.1,4.6-0.3c1.4-0.2,2.7-0.3,4.2-0.3c2.9,0,5.6,0.4,8.2,1.1c2.6,0.7,4.9,2.1,6.9,4.1c3.2,3.1,4.7,7,4.7,11.6
	c0,2.2-0.4,4.4-1.3,6.4C540.4,171.2,539.1,173,537.6,174.6z M535.8,157.1c-0.7-1.9-1.7-3.6-2.9-4.9c-1.3-1.4-2.8-2.4-4.5-3.2
	c-1.7-0.7-3.7-1.1-5.7-1.1c-0.8,0-1.7,0-2.5,0.1c-0.9,0.1-1.6,0.2-2.2,0.4c-0.2,0.3-0.3,0.7-0.4,1.3c-0.1,0.6-0.1,1.6-0.1,3.2v18.8
	c0,1.2,0.1,2.1,0.2,2.9c0.1,0.7,0.3,1.3,0.5,1.7c0.2,0.4,0.6,0.7,1,0.9c0.4,0.2,0.9,0.2,1.5,0.2h4c1.7,0,3.2-0.3,4.7-0.9
	c1.5-0.6,2.8-1.5,3.9-2.6c1.1-1.1,2-2.6,2.7-4.3c0.7-1.7,1-3.7,1-5.9C536.9,161.2,536.5,159.1,535.8,157.1z M400.2,84.9
	c-0.7,0-1.4,0-2.1,0c0.3-2.4,0.5-4.8,0.5-7.4c0-1.5-0.1-3-0.3-4.6c0.6,0,1.3,0,1.9,0c53.1,0,99.9,18.9,127.5,47.6
	C496.3,98.7,450.8,84.9,400.2,84.9z M478.4,61.3V84c-6.6-2.7-13.5-5-20.7-7V61.3c0-13.1-1-14-8.6-14.7v-4.7H488v4.7
	C479.3,47.3,478.4,48.2,478.4,61.3z M432.6,61.3v10.4c-6.8-1-13.7-1.7-20.7-2.1v-8.3c0-13.1-1-14-9.8-14.7v-4.7h38.9v4.7
	C433.5,47.3,432.6,48.2,432.6,61.3z M404.1,144.4c0.1,0.2,0.1,0.5,0.1,0.8c0,0.4-0.1,0.5-0.4,0.6l-1.9,0.3c-0.4,0.1-0.6,0.2-0.8,0.4
	c-0.2,0.2-0.3,0.5-0.4,0.9c-0.1,0.4-0.2,1-0.2,1.7c0,0.7,0,1.6,0,2.6v8.3c0,0.1,0.1,0.3,0.3,0.4H420c0.2-0.1,0.3-0.2,0.3-0.4v-8.3
	c0-1.1,0-1.9,0-2.6c0-0.7-0.1-1.3-0.2-1.7c-0.1-0.4-0.3-0.7-0.5-0.9c-0.2-0.2-0.5-0.3-0.8-0.4l-1.9-0.3c-0.2,0-0.4-0.2-0.4-0.6
	c0-0.2,0-0.3,0.1-0.5c0-0.1,0.1-0.2,0.1-0.3c1.1,0,2.1,0.1,3.1,0.1c1,0,2.1,0,3.1,0c1,0,2.1,0,3.2,0c1.1,0,2.2-0.1,3.3-0.1
	c0.1,0.2,0.1,0.5,0.1,0.8c0,0.4-0.1,0.5-0.4,0.6l-1.9,0.3c-0.4,0.1-0.6,0.2-0.8,0.4c-0.2,0.2-0.4,0.5-0.5,0.9
	c-0.1,0.4-0.2,1-0.2,1.6c0,0.7,0,1.6,0,2.6v21.5c0,1.1,0,1.9,0,2.6c0,0.7,0.1,1.2,0.2,1.7c0.1,0.4,0.3,0.7,0.5,0.9
	c0.2,0.2,0.5,0.3,0.8,0.3l1.9,0.3c0.2,0,0.4,0.2,0.4,0.6c0,0.3,0,0.6-0.1,0.8c-1.1,0-2.1-0.1-3.2-0.1c-1.1,0-2.1-0.1-3.1-0.1
	c-1,0-2.1,0-3.2,0.1c-1.1,0-2.2,0.1-3.2,0.1c0-0.1-0.1-0.2-0.1-0.3c0-0.1-0.1-0.3-0.1-0.5c0-0.4,0.1-0.6,0.4-0.6l1.9-0.3
	c0.4,0,0.6-0.1,0.8-0.3c0.2-0.2,0.4-0.5,0.5-0.9c0.1-0.4,0.2-1,0.2-1.6c0-0.7,0-1.5,0-2.6v-10c0-0.1-0.2-0.2-0.3-0.3h-19.1
	c-0.2,0.1-0.3,0.2-0.3,0.3v9.9c0,1,0,1.9,0,2.6c0,0.7,0.1,1.2,0.2,1.7c0.1,0.4,0.3,0.7,0.4,0.9c0.2,0.2,0.5,0.3,0.8,0.3l1.9,0.3
	c0.2,0,0.4,0.2,0.4,0.6c0,0.3,0,0.6-0.1,0.8c-1,0-2.1-0.1-3.1-0.1c-1,0-2.1-0.1-3.1-0.1c-1,0-2.1,0-3.2,0.1c-1.1,0-2.2,0.1-3.3,0.1
	c-0.1-0.2-0.1-0.5-0.1-0.8c0-0.4,0.1-0.6,0.4-0.6l1.9-0.3c0.4,0,0.6-0.1,0.8-0.3c0.2-0.2,0.3-0.5,0.4-0.9c0.1-0.4,0.2-0.9,0.2-1.6
	c0-0.7,0-1.5,0-2.6v-21.5c0-1.1,0-1.9,0-2.6c0-0.7-0.1-1.3-0.2-1.7c-0.1-0.4-0.2-0.7-0.4-0.9c-0.2-0.2-0.5-0.3-0.8-0.4l-1.9-0.3
	c-0.2,0-0.4-0.2-0.4-0.6c0-0.3,0-0.6,0.1-0.8c1,0,2.1,0.1,3.1,0.1c1,0,2.1,0,3.1,0c1,0,2.1,0,3.2,0
	C402,144.5,403.1,144.5,404.1,144.4z M343.8,120.9h-31.4v-4.7c8.9-0.7,9.8-1.6,9.8-14.7v-0.9c6.7-2.2,13.6-4.1,20.7-5.7v6.7
	c0,10.8,2.7,12.9,8.5,12.9c10.5,0,21-11.5,21-33.1c0-26.1-13.2-33.4-23.6-33.4c-2.8,0-4.4,0.4-5.2,0.8c-0.6,0.2-0.7,3-0.7,6.1v21.9
	c-7.1,1.9-14.1,4.2-20.7,6.9V61.3c0-13.1-1-14-8.9-14.7v-4.7h35.5c14.9,0,27.3,2.9,35.5,10.8c5.7,5.5,10.5,14.5,10.5,24.9
	C394.9,107.9,371.9,120.9,343.8,120.9z M367.8,75.4c0,0,0.2,2.8,0.3,5.7c0.1,2.9-0.3,5.7-0.3,5.7c-37.6,4.5-70.9,16.6-95.5,33.8
	C294.2,97.9,328.2,81.3,367.8,75.4z M272.6,154.2c-0.1,0-0.2,0.1-0.3,0.1c-0.1,0-0.3,0-0.5,0c-0.2,0-0.3,0-0.4,0
	c-0.1,0-0.2-0.1-0.2-0.3c-0.4-1.3-0.9-2.4-1.7-3.3c-0.8-0.8-1.6-1.5-2.6-2c-1-0.5-2-0.8-3-1c-1.1-0.2-2-0.3-2.9-0.3
	c-2.1,0-4,0.3-5.6,1c-1.6,0.7-3,1.7-4.2,2.9c-1.1,1.2-2,2.7-2.6,4.4c-0.6,1.7-0.9,3.6-0.9,5.6c0,2.3,0.3,4.5,1,6.5
	c0.7,2.1,1.6,3.9,2.9,5.4c1.3,1.5,2.8,2.8,4.6,3.7c1.8,0.9,3.9,1.4,6.2,1.4c2.6,0,4.6-0.6,6.1-1.9c1.5-1.2,2.6-3,3.2-5.3
	c0.1-0.2,0.1-0.2,0.2-0.3c0.1,0,0.2,0,0.4,0c0.2,0,0.3,0,0.5,0.1c0.1,0,0.2,0.1,0.3,0.1c-0.1,0.4-0.1,0.9-0.2,1.5
	c-0.1,0.6-0.2,1.3-0.2,1.9c-0.1,0.6-0.1,1.3-0.2,1.8c-0.1,0.6-0.1,1-0.1,1.3c-0.1,0.2-0.2,0.3-0.3,0.4c-1.5,0.6-3.2,1.2-5,1.5
	c-1.9,0.4-3.8,0.6-5.8,0.6c-2.5,0-4.9-0.4-7.2-1.2c-2.3-0.8-4.3-2-6.1-3.5c-1.8-1.5-3.1-3.3-4.2-5.5c-1-2.1-1.5-4.5-1.5-7.2
	c0-2.7,0.5-5.1,1.5-7.2c1-2.1,2.4-3.9,4.1-5.4c1.7-1.5,3.7-2.6,6-3.4c2.3-0.8,4.6-1.2,7.1-1.2c1.7,0,3.5,0.2,5.5,0.5
	c1.9,0.3,3.7,0.8,5.3,1.5c0.1,0.1,0.1,0.1,0.2,0.2c0.1,0.1,0.1,0.1,0.2,0.2c0,0.4,0,0.8,0.1,1.3c0,0.5,0.1,1.1,0.2,1.7
	c0.1,0.6,0.1,1.2,0.2,1.7C272.5,153.3,272.6,153.8,272.6,154.2z M229.6,175.1c-1.5,1.6-3.3,2.8-5.3,3.7c-2.1,0.9-4.3,1.4-6.8,1.4
	c-2.4,0-4.7-0.5-6.8-1.4c-2.1-0.9-3.9-2.1-5.5-3.7c-1.6-1.6-2.8-3.4-3.7-5.5c-0.9-2.1-1.3-4.3-1.3-6.7c0-2.4,0.4-4.6,1.3-6.7
	c0.9-2.1,2-3.9,3.6-5.5c1.5-1.5,3.3-2.8,5.4-3.7c2.1-0.9,4.3-1.4,6.8-1.4c2.4,0,4.7,0.5,6.8,1.4c2.1,0.9,3.9,2.1,5.5,3.7
	c1.6,1.6,2.8,3.4,3.7,5.5c0.9,2.1,1.4,4.3,1.4,6.7c0,2.4-0.4,4.6-1.3,6.7C232.3,171.7,231.1,173.6,229.6,175.1z M228.1,158.2
	c-0.5-1.9-1.3-3.7-2.2-5.3c-1-1.6-2.3-2.9-3.8-3.9c-1.5-1-3.3-1.5-5.4-1.5c-2,0-3.6,0.4-5,1.3c-1.4,0.9-2.5,2-3.4,3.4
	c-0.9,1.4-1.5,2.9-1.9,4.7c-0.4,1.7-0.6,3.5-0.6,5.2c0,1.8,0.2,3.7,0.7,5.7c0.5,2,1.3,3.7,2.2,5.3c1,1.6,2.3,2.9,3.8,3.9
	c1.5,1,3.3,1.5,5.4,1.5c2,0,3.6-0.4,5-1.3c1.4-0.9,2.5-2,3.4-3.4c0.9-1.4,1.5-2.9,1.9-4.7c0.4-1.7,0.6-3.5,0.6-5.2
	C228.9,162.1,228.6,160.2,228.1,158.2z M186.9,175.1c-2,2-4.2,3.3-6.7,4c-2.5,0.7-5,1.1-7.6,1.1H162c-1.3,0-2.5,0-3.5,0.1
	c-1,0-1.8,0.1-2.6,0.1c-0.1-0.2-0.1-0.5-0.1-0.8c0-0.4,0.1-0.6,0.4-0.6l1.9-0.3c0.3,0,0.6-0.1,0.8-0.3c0.2-0.2,0.3-0.5,0.4-0.9
	c0.1-0.4,0.2-1,0.2-1.7c0-0.7,0-1.6,0-2.6v-21.4c0-1.1,0-1.9,0-2.6c0-0.7-0.1-1.3-0.2-1.7c-0.1-0.4-0.3-0.7-0.4-0.9
	c-0.2-0.2-0.5-0.3-0.8-0.4l-1.9-0.3c-0.2,0-0.4-0.2-0.4-0.6c0-0.3,0-0.6,0.1-0.8c0.6,0.1,1.4,0.1,2.4,0.1c1,0,1.9,0,2.9,0
	c1.9,0,3.6-0.1,5-0.3c1.5-0.2,3-0.3,4.5-0.3c3.2,0,6.1,0.4,8.9,1.2c2.8,0.8,5.3,2.3,7.5,4.5c3.4,3.4,5.1,7.6,5.1,12.7
	c0,2.4-0.5,4.7-1.4,6.9C190,171.4,188.7,173.3,186.9,175.1z M185.1,156.1c-0.8-2.1-1.8-3.9-3.2-5.4c-1.4-1.5-3-2.6-4.9-3.4
	c-1.9-0.8-4-1.2-6.2-1.2c-0.9,0-1.8,0-2.8,0.2c-0.9,0.1-1.7,0.2-2.4,0.4c-0.2,0.3-0.3,0.8-0.4,1.4c-0.1,0.6-0.2,1.8-0.2,3.4V172
	c0,1.3,0.1,2.3,0.2,3.1c0.1,0.8,0.3,1.4,0.6,1.9c0.3,0.4,0.6,0.8,1.1,0.9c0.5,0.2,1,0.3,1.7,0.3h4.3c1.8,0,3.5-0.3,5.1-1
	c1.6-0.7,3-1.6,4.3-2.9c1.2-1.3,2.2-2.8,2.9-4.7c0.7-1.9,1.1-4,1.1-6.4C186.2,160.6,185.8,158.2,185.1,156.1z M285.5,150.7
	c0-0.6-0.1-1.2-0.2-1.5c-0.1-0.4-0.2-0.6-0.4-0.8c-0.2-0.2-0.4-0.3-0.8-0.3l-1.7-0.3c-0.2,0-0.3-0.2-0.3-0.6c0-0.3,0-0.5,0.1-0.7
	c1,0,1.9,0.1,2.9,0.1c1,0,1.9,0,2.9,0c0.9,0,2,0,3.1,0c1.2,0,2.2-0.1,3.2-0.1c0.1,0.2,0.1,0.4,0.1,0.7c0,0.4-0.1,0.5-0.3,0.6l-2,0.3
	c-0.3,0.1-0.6,0.2-0.8,0.3c-0.2,0.2-0.4,0.4-0.5,0.8c-0.1,0.4-0.2,0.9-0.2,1.5c0,0.6,0,1.4,0,2.4v18.6c0,1.2,0.1,2.1,0.2,2.9
	c0.1,0.7,0.3,1.3,0.5,1.7c0.2,0.4,0.6,0.7,1,0.9c0.4,0.2,0.9,0.2,1.5,0.2h3.7c1.2,0,2.2,0,3-0.1c0.8-0.1,1.5-0.2,2.1-0.4
	c0.6-0.2,1.1-0.5,1.4-0.9c0.4-0.4,0.7-0.9,1-1.6l0.8-1.8c0.1-0.3,0.3-0.4,0.7-0.3c0.2,0,0.3,0.1,0.5,0.1c0.2,0,0.3,0.1,0.4,0.2
	c-0.1,0.4-0.3,0.8-0.4,1.4c-0.1,0.6-0.3,1.1-0.4,1.8c-0.1,0.6-0.3,1.2-0.4,1.8c-0.1,0.6-0.2,1.1-0.3,1.5c0,0.1-0.2,0.2-0.4,0.3
	c-0.3-0.1-1.1-0.1-2.4-0.1c-1.4,0-3.2,0-5.5,0h-9.6c-0.9,0-1.9,0-2.8,0c-0.9,0-1.9,0.1-2.8,0.1c-0.1-0.2-0.1-0.4-0.1-0.7
	c0-0.3,0.1-0.5,0.3-0.5l1.7-0.3c0.3,0,0.6-0.1,0.8-0.3c0.2-0.2,0.3-0.5,0.4-0.8c0.1-0.4,0.2-0.9,0.2-1.6c0-0.6,0-1.4,0-2.4v-19.7
	C285.5,152.1,285.5,151.3,285.5,150.7z M318.3,150.7c0-0.6-0.1-1.2-0.2-1.5c-0.1-0.4-0.2-0.6-0.4-0.8c-0.2-0.2-0.4-0.3-0.7-0.3
	l-1.7-0.3c-0.2,0-0.3-0.2-0.3-0.6c0-0.3,0-0.5,0.1-0.7c0.6,0.1,1.4,0.1,2.3,0.1c1,0,2,0,3.1,0h7.7c2.3,0,4,0,5.1,0
	c1.2,0,1.9,0,2.3-0.1c0.3,0.1,0.4,0.3,0.4,0.3c0,0.4,0.1,0.8,0.2,1.3c0.1,0.5,0.2,1,0.3,1.5c0.1,0.5,0.2,1,0.3,1.5
	c0.1,0.5,0.2,0.9,0.3,1.3c-0.1,0-0.2,0.1-0.3,0.1c-0.1,0-0.3,0.1-0.5,0.1c-0.4,0.1-0.6,0-0.6-0.2l-0.4-1.1c-0.2-0.6-0.5-1-0.8-1.4
	c-0.3-0.4-0.8-0.6-1.3-0.8c-0.5-0.2-1.2-0.3-2-0.4c-0.8-0.1-1.8-0.1-2.9-0.1h-4.3c-0.2,0.2-0.3,0.6-0.4,1.3
	c-0.1,0.7-0.2,1.7-0.2,3.2v8.2c0,0.1,0.1,0.2,0.3,0.3h4.3c1.9,0,3.1-0.1,3.8-0.4c0.7-0.3,1-0.7,1.1-1.3l0.2-1.4
	c0-0.2,0.2-0.3,0.5-0.3c0.2,0,0.3,0,0.5,0c0.1,0,0.2,0.1,0.3,0.1c0,0.9-0.1,1.7-0.1,2.5c0,0.8,0,1.4,0,2c0,0.6,0,1.2,0,2
	c0,0.7,0.1,1.5,0.1,2.4c-0.2,0.1-0.5,0.1-0.8,0.1c-0.2,0-0.3,0-0.3,0c-0.1,0-0.1-0.1-0.1-0.3l-0.2-1.7c-0.1-0.6-0.4-1.1-1.1-1.3
	c-0.7-0.3-1.9-0.4-3.8-0.4h-4.3c-0.2,0.1-0.3,0.2-0.3,0.3v8.1c0,1.2,0.1,2.1,0.2,2.8c0.1,0.7,0.3,1.3,0.6,1.7c0.3,0.4,0.6,0.7,1,0.9
	c0.4,0.2,0.9,0.2,1.5,0.2h3.8c1.2,0,2.2,0,3-0.1c0.8-0.1,1.5-0.2,2-0.4c0.5-0.2,1-0.5,1.4-0.9c0.4-0.4,0.7-0.9,1.1-1.5l0.8-1.4
	c0.1-0.2,0.1-0.3,0.2-0.3c0.1,0,0.2,0,0.4,0c0.4,0,0.7,0.1,0.8,0.2c-0.1,0.4-0.3,0.8-0.4,1.3c-0.1,0.5-0.3,1.1-0.4,1.6
	c-0.1,0.6-0.3,1.1-0.4,1.7c-0.1,0.6-0.2,1-0.3,1.4c0,0.1-0.2,0.2-0.4,0.3c-0.3-0.1-1.1-0.1-2.4-0.1c-1.3,0-3.1,0-5.5,0h-9.8
	c-1.2,0-2.3,0-3.2,0c-0.9,0-1.7,0.1-2.3,0.1c-0.1-0.2-0.1-0.4-0.1-0.7c0-0.4,0.1-0.5,0.3-0.6l1.7-0.3c0.3,0,0.6-0.1,0.7-0.3
	c0.2-0.2,0.3-0.5,0.4-0.8c0.1-0.4,0.2-0.9,0.2-1.5c0-0.6,0-1.4,0-2.4v-19.7C318.3,152.1,318.3,151.3,318.3,150.7z M350.7,150.7
	c0-0.6-0.1-1.2-0.2-1.5c-0.1-0.4-0.2-0.6-0.4-0.8c-0.2-0.2-0.4-0.3-0.8-0.3l-1.7-0.3c-0.2,0-0.3-0.2-0.3-0.6c0-0.3,0-0.5,0.1-0.7
	c1,0,1.9,0.1,2.7,0.1c0.8,0,1.7,0,2.6,0c1.3,0,2.6,0,4-0.2c1.3-0.1,2.5-0.2,3.6-0.2c1.6,0,3.1,0.2,4.5,0.6c1.4,0.4,2.5,0.9,3.5,1.6
	c1,0.7,1.7,1.6,2.3,2.7c0.6,1.1,0.8,2.3,0.8,3.7c0,1-0.2,1.9-0.5,2.7c-0.3,0.8-0.8,1.6-1.4,2.2c-0.6,0.7-1.3,1.3-2.1,1.8
	c-0.8,0.5-1.6,0.9-2.5,1.3c0,0.1,0,0.3,0,0.4c0.4,0.6,0.8,1.3,1.3,2c0.5,0.8,1.1,1.6,1.7,2.4c0.6,0.9,1.2,1.7,1.9,2.6
	c0.6,0.9,1.3,1.7,1.9,2.5c0.7,0.9,1.3,1.6,1.9,2.3c0.5,0.6,1,1.2,1.5,1.6c0.4,0.4,0.9,0.8,1.3,1c0.4,0.2,0.8,0.4,1.2,0.4l0.8,0.1
	c0.2,0,0.2,0.1,0.3,0.2c0,0.1,0,0.2,0,0.4c0,0.3,0,0.5-0.1,0.7c-0.4,0-1-0.1-1.8-0.1c-0.8,0-1.4,0-1.9,0c-1.7,0-3.1,0-4,0.2
	c-0.8-0.8-1.7-1.8-2.6-2.9c-0.9-1.1-1.8-2.4-2.7-3.7c-0.9-1.3-1.8-2.7-2.7-4.2c-0.9-1.5-1.8-2.9-2.7-4.3c-0.1-0.1-0.1-0.1-0.2-0.2
	c0,0-0.1-0.1-0.2-0.1H356c-0.2,0.1-0.3,0.2-0.3,0.3v8.4c0,1,0,1.8,0,2.4c0,0.7,0.1,1.2,0.2,1.5c0.1,0.4,0.2,0.6,0.4,0.8
	c0.2,0.2,0.4,0.3,0.8,0.3l1.7,0.3c0.2,0,0.3,0.2,0.3,0.6c0,0.3,0,0.5-0.1,0.7c-1,0-1.9-0.1-2.9-0.1c-1,0-1.9,0-2.8,0
	c-0.9,0-1.9,0-2.9,0c-1,0-2,0.1-3,0.1c-0.1-0.2-0.1-0.4-0.1-0.7c0-0.4,0.1-0.5,0.3-0.6l1.7-0.3c0.3,0,0.6-0.1,0.8-0.3
	c0.2-0.2,0.3-0.5,0.4-0.8c0.1-0.4,0.2-0.9,0.2-1.5c0-0.6,0-1.4,0-2.4v-19.7C350.8,152.1,350.8,151.3,350.7,150.7z M355.7,162
	c0,0.1,0.1,0.2,0.3,0.3h3.2c2.1,0,3.8-0.6,5.1-1.8c1.3-1.2,1.9-2.9,1.9-5c0-1.2-0.2-2.3-0.6-3.2c-0.4-0.9-0.9-1.7-1.6-2.4
	c-0.7-0.6-1.5-1.1-2.4-1.5c-0.9-0.3-1.9-0.5-3-0.5c-0.4,0-0.8,0-1.2,0.1c-0.4,0.1-0.8,0.1-1.1,0.3c-0.2,0.2-0.3,0.6-0.4,1.3
	c-0.1,0.7-0.1,1.8-0.1,3.3V162z M432.6,90.6v10.8c0,13.1,1,14,8.9,14.7v4.7h-38.9v-4.7c8.4-0.7,9.4-1.6,9.4-14.7V88.9
	C418.9,89.2,425.8,89.8,432.6,90.6z M440.7,150.7c1.5-1.5,3.3-2.8,5.4-3.7c2.1-0.9,4.3-1.4,6.8-1.4c2.4,0,4.7,0.5,6.8,1.4
	c2.1,0.9,3.9,2.1,5.5,3.7c1.6,1.6,2.8,3.4,3.7,5.5c0.9,2.1,1.3,4.3,1.3,6.7c0,2.4-0.4,4.6-1.3,6.7c-0.9,2.1-2,3.9-3.5,5.5
	c-1.5,1.6-3.3,2.8-5.3,3.7c-2.1,0.9-4.3,1.4-6.8,1.4c-2.4,0-4.7-0.5-6.8-1.4c-2.1-0.9-3.9-2.1-5.5-3.7c-1.6-1.6-2.8-3.4-3.7-5.5
	c-0.9-2.1-1.4-4.3-1.4-6.7c0-2.4,0.4-4.6,1.3-6.7C438,154.1,439.2,152.2,440.7,150.7z M442.2,167.6c0.5,2,1.2,3.7,2.2,5.3
	c1,1.6,2.3,2.9,3.8,3.9c1.5,1,3.3,1.5,5.4,1.5c2,0,3.6-0.4,5-1.3c1.4-0.9,2.5-2,3.4-3.4c0.9-1.4,1.5-2.9,1.9-4.7
	c0.4-1.7,0.6-3.5,0.6-5.2c0-1.8-0.3-3.7-0.8-5.7c-0.5-1.9-1.2-3.7-2.3-5.3c-1-1.6-2.3-2.9-3.8-3.9c-1.5-1-3.3-1.5-5.4-1.5
	c-2,0-3.6,0.4-5,1.3c-1.4,0.9-2.5,2-3.4,3.4c-0.9,1.4-1.5,2.9-1.9,4.7c-0.4,1.7-0.6,3.5-0.6,5.2
	C441.5,163.8,441.7,165.6,442.2,167.6z M478.4,100.7v0.7c0,13.1,1,14,9.4,14.7v4.7h-39.6v-4.7c8.6-0.7,9.6-1.6,9.6-14.7V95
	C464.8,96.6,471.7,98.5,478.4,100.7z M481.1,150.7c0-0.6-0.1-1.2-0.2-1.5c-0.1-0.4-0.2-0.6-0.4-0.8c-0.2-0.2-0.4-0.3-0.7-0.3
	l-1.7-0.3c-0.2,0-0.3-0.2-0.3-0.6c0-0.3,0-0.5,0.1-0.7c1,0,1.9,0.1,2.9,0.1c1,0,1.9,0,2.8,0c0.9,0,2,0,3.1,0c1.2,0,2.2-0.1,3.2-0.1
	c0.1,0.2,0.1,0.4,0.1,0.7c0,0.4-0.1,0.5-0.3,0.6l-2,0.3c-0.3,0.1-0.6,0.2-0.8,0.3c-0.2,0.2-0.4,0.4-0.5,0.8
	c-0.1,0.4-0.2,0.9-0.2,1.5c0,0.6,0,1.4,0,2.4v18.6c0,1.2,0.1,2.1,0.2,2.9c0.1,0.7,0.3,1.3,0.5,1.7c0.2,0.4,0.6,0.7,1,0.9
	c0.4,0.2,0.9,0.2,1.5,0.2h3.7c1.2,0,2.2,0,3-0.1c0.8-0.1,1.5-0.2,2.1-0.4c0.6-0.2,1.1-0.5,1.4-0.9c0.4-0.4,0.7-0.9,1-1.6l0.8-1.8
	c0.1-0.3,0.3-0.4,0.7-0.3c0.2,0,0.3,0.1,0.5,0.1c0.2,0,0.3,0.1,0.4,0.2c-0.1,0.4-0.3,0.8-0.4,1.4c-0.2,0.6-0.3,1.1-0.4,1.8
	c-0.1,0.6-0.3,1.2-0.4,1.8c-0.1,0.6-0.2,1.1-0.3,1.5c0,0.1-0.2,0.2-0.4,0.3c-0.3-0.1-1.1-0.1-2.4-0.1c-1.4,0-3.2,0-5.5,0h-9.6
	c-0.9,0-1.9,0-2.8,0c-0.9,0-1.9,0.1-2.8,0.1c-0.1-0.2-0.1-0.4-0.1-0.7c0-0.3,0.1-0.5,0.3-0.5l1.7-0.3c0.3,0,0.6-0.1,0.7-0.3
	c0.2-0.2,0.3-0.5,0.4-0.8c0.1-0.4,0.2-0.9,0.2-1.6c0-0.6,0-1.4,0-2.4v-19.7C481.2,152.1,481.2,151.3,481.1,150.7z"/>
<g>
	<path fill="#FFFFFF" d="M336.6,268.3c0-5,4-9,9-9c5,0,9,4,9,9c0,5-4,9-9,9C340.6,277.4,336.6,273.3,336.6,268.3z"/>
	<path fill="#009FE3" d="M478.8,328.4c0-5,4-9,9-9c5,0,9,4,9,9c0,5-4,9-9,9C482.8,337.5,478.8,333.4,478.8,328.4z"/>
	<path fill="#FFFFFF" d="M188.7,281.4c-16.4,0-28.3,11.8-28.3,28.1c0,16.3,11.9,28.1,28.3,28.1c16.5,0,28.4-11.8,28.4-28.1
		C217.1,293.2,205.2,281.4,188.7,281.4z M188.7,324.5c-7.8,0-13.2-6.2-13.2-15c0-8.8,5.4-15,13.2-15c7.8,0,13.3,6.2,13.3,15
		C201.9,318.5,196.6,324.5,188.7,324.5z"/>
	<path fill="#FFFFFF" d="M319.1,310.9c-0.6-1.2-1.4-2.2-2.1-3l-0.5-0.5l0.5-0.5c0.8-0.8,1.5-1.7,2.3-2.8l14.5-21.5h-17.6l-10.9,16.8
		c-0.6,0.9-1.9,1.4-3.7,1.4h-2.5v-31.9c0-6.4-4-7.2-8.3-7.2h-7.3l0,75.2h15.6v-22.6h1.5c1.8,0,3,0.2,3.5,1.2l8.6,16.2
		c2.4,4.4,4.8,5.2,9.3,5.2h11.9l-8.9-14.7L319.1,310.9z"/>
	<path fill="#FFFFFF" d="M394.8,281.3c-7.9,0-13,3.5-15.8,6.5l-0.9,1l-0.3-1.3c-0.8-3.2-3.6-4.9-7.9-4.9h-7l0,54.3h15.5v-25
		c0-2.4,0.3-4.6,1-6.5c1.7-5.9,6.5-9.5,12.5-9.5c4.8,0,6.7,2.6,6.7,9.2v23.6c0,5.6,2.6,8.3,8.2,8.3h7.4l0-34.5
		C414.2,288.6,407.5,281.3,394.8,281.3z"/>
	<path fill="#FFFFFF" d="M345.8,282.5h-7.3l0,42h0v12.3h7.8c0.1,0,0.2,0,0.3,0l3.7,0h3.6v0h0l0-46
		C353.9,285.2,351.3,282.5,345.8,282.5z"/>
	<path fill="#FFFFFF" d="M249.5,281.4c-16.4,0-28.4,11.8-28.4,28.1c0,16.3,11.9,28.1,28.4,28.1c16.5,0,28.4-11.8,28.4-28.1
		C277.9,293.2,266,281.4,249.5,281.4z M249.5,324.5c-7.8,0-13.2-6.2-13.2-15c0-8.8,5.4-15,13.2-15c7.8,0,13.3,6.2,13.3,15
		C262.7,318.5,257.4,324.5,249.5,324.5z"/>
	<path fill="#009FE3" d="M581.3,281.4c-16.4,0-28.3,11.8-28.3,28.1c0,16.3,11.9,28.1,28.3,28.1c16.5,0,28.5-11.8,28.5-28.1
		C609.8,293.2,597.8,281.4,581.3,281.4z M581.3,324.5c-7.8,0-13.2-6.2-13.2-15c0-8.8,5.4-15,13.2-15c7.8,0,13.3,6.2,13.3,15
		C594.6,318.5,589.2,324.5,581.3,324.5z"/>
	<path fill="#FFFFFF" d="M465.5,282.4c-2.9,0-5.2,1.2-6.3,3.3l-0.4,0.8l-0.7-0.6c-2.5-2.2-7-4.7-14.3-4.7
		c-14.5,0-24.2,10.9-24.2,27.1c0,16.2,10.1,27.4,24.5,27.4c4.9,0,8.8-1.1,11.9-3.5l1.2-0.9v1.5c0,7.3-4.7,11.3-13.2,11.3
		c-4.1,0-7.9-1-10.4-1.9c-3.3-1-5.2-0.2-6.5,3.1l-1.2,3l-1.7,4.4l1.1,0.6c5.5,2.9,12.5,4.6,18.9,4.6c13.2,0,28.6-6.7,28.6-25.7
		l0-49.8H465.5z M446.8,322.1c-8.4,0-11.5-7.4-11.5-14.3c0-3.1,0.8-13,10.6-13c4.9,0,11.5,1.4,11.5,13.5
		C457.5,319.7,451.7,322.1,446.8,322.1z"/>
	<path fill="#FFFFFF" d="M147.1,298.3l-2.3-1.3l2-1.7c2.3-2,6.2-6.5,6.2-14.2c0-11.8-9.2-19.4-23.4-19.4h-16.2l0,0h-1.8
		c-4.2,0.2-7.6,3.6-7.6,7.8v3.7v55.9v7.5h7.4c0,0,0,0,0,0H130c15.8,0,26-8.6,26-21.9C156,307.5,152.7,301.4,147.1,298.3z
		 M118.4,283.2L118.4,283.2v-4c0-3.5,1.5-5.1,4.7-5.3h6.4c5.5,0,8.8,3.3,8.8,8.9c0,4.2-2.3,9.1-8.6,9.1h-11.3V283.2z M131,323.9
		l-12.6,0v-11.1v-4c0-3.2,1.3-4.9,4-5.3h8.6c6.1,0,10.1,3.9,10.1,10.1C141.1,320.1,137.3,323.9,131,323.9z"/>
	<path fill="#009FE3" d="M678.9,281.5c-6.4,0-12.6,3-16.6,8.1l-1.1,1.4l-0.9-1.6c-2.9-5.2-7.8-7.9-14.7-7.9c-7.2,0-12,4-14.3,6.4
		l-1.5,1.6l-0.6-2.1c-0.8-3-3.5-4.7-7.6-4.7h-6.5l-0.1,54.1H630v-23.9c0-2.1,0.3-4.2,0.8-6.3c1.4-5.8,5.3-12,11.8-11.4
		c4,0.4,6,3.5,6,9.5v32.1h14.9v-23.9c0-2.6,0.2-4.6,0.8-6.5c1.2-5.5,5.2-11.2,11.5-11.2c4.6,0,6.2,2.6,6.2,9.5v24.2
		c0,5.5,2.4,7.9,7.9,7.9h6.9l0-34.5C696.9,288.5,690.9,281.5,678.9,281.5z"/>
	<path fill="#009FE3" d="M544.4,318c0,0.1-6.4,6.8-14.8,6.8c-7.6,0-15.3-4.7-15.3-15.1c0-9,6-15.3,14.5-15.3c2.8,0,5.9,1,6.4,2.7
		l0.1,0.3c1.1,3.8,4.6,4,5.3,4h8.1v-7.1c0-9.3-11.9-12.7-19.9-12.7c-17.1,0-29.5,11.9-29.5,28.3c0,16.4,12.3,28.3,29.2,28.3
		c14.7,0,22.7-9.6,22.7-9.7l0.4-0.5l-6.4-10.6L544.4,318z"/>
</g>
<g id="Page-1">
	<g id="Artboard">
		<g id="Group" transform="translate(4.000000, 4.000000)">
			<path id="Oval-1" fill="none" stroke="#1C90F3" stroke-width="5" stroke-linecap="round" d="M399,481.2
				c-6.4-7.4-13.9-17.1-22-17.1c-8.2,0-14.9,6.9-14.9,15.4c0,8.5,6.7,15.4,14.9,15.4c7.4,0,11-5.1,13.1-7.5"/>
			<path id="Oval-1-Copy" fill="none" stroke="#1C90F3" stroke-width="5" stroke-linecap="round" d="M396.2,477.9
				c6.4,7.4,13.9,17.1,22,17.1c8.2,0,14.9-6.9,14.9-15.4c0-8.5-6.7-15.4-14.9-15.4c-7.4,0-11,5.1-13.1,7.5"/>
			<path id="Shape-path" fill="none" stroke="#1C90F3" stroke-width="5" stroke-linejoin="round" d="M465.5,488.3
				c0-11.3-6.9-21-16.8-25.1c0-0.8,0.1-1.6,0.1-2.5c0-22.7-18.4-41.1-41.2-41.1c-16.4,0-30.5,9.6-37.2,23.4c-3.2-2.5-7.2-4-11.6-4
				c-10.5,0-19,8.5-19,19c0,2,0.3,3.9,0.9,5.6c-8.2,4.9-13.7,13.7-13.7,23.9c0,15.2,12.3,27.6,27.5,27.8h83.8
				C453.3,515.5,465.5,503.3,465.5,488.3L465.5,488.3z"/>
			<path id="JSFiddle" fill="#1C90F3" d="M339.4,552.5c2.3,0,4.2-0.7,5.4-1.9c1.3-1.3,2-3.1,2-5.6v-13.7h-4.7v13.5
				c0,2.4-1.1,3.5-2.8,3.5c-1.5,0-2.6-0.8-3.8-2.1l-2.9,3.2C334,551.1,336.1,552.5,339.4,552.5L339.4,552.5z M358.6,552.5
				c4.5,0,7.7-2.3,7.7-6.5v-0.1c0-3.7-2.4-5.2-6.6-6.3c-3.6-0.9-4.5-1.4-4.5-2.8v-0.1c0-1,0.9-1.8,2.7-1.8c1.8,0,3.6,0.8,5.4,2.1
				l2.4-3.5c-2.1-1.7-4.7-2.7-7.8-2.7c-4.3,0-7.3,2.5-7.3,6.3v0.1c0,4.2,2.7,5.3,6.9,6.4c3.5,0.9,4.2,1.5,4.2,2.7v0.1
				c0,1.2-1.1,2-3,2c-2.4,0-4.4-1-6.3-2.5l-2.7,3.3C352.2,551.4,355.4,552.5,358.6,552.5L358.6,552.5z M369.8,552.2h4.6v-8.1h10
				v-4.2h-10v-4.5h11.3v-4.2h-15.9V552.2z M388.6,534.4h4.8v-4h-4.8V534.4z M388.8,552.2h4.5v-16h-4.5V552.2z M403.7,552.5
				c2.4,0,3.9-1.1,5-2.6v2.3h4.5v-21.8h-4.5v7.9c-1.1-1.3-2.6-2.4-5-2.4c-3.8,0-7.3,2.9-7.3,8.3v0.1
				C396.4,549.6,400,552.5,403.7,552.5L403.7,552.5z M404.9,548.6c-2.1,0-3.9-1.8-3.9-4.4v-0.1c0-2.7,1.8-4.4,3.9-4.4
				c2.1,0,3.9,1.8,3.9,4.4v0.1C408.8,546.9,407,548.6,404.9,548.6L404.9,548.6z M423.5,552.5c2.4,0,3.9-1.1,5-2.6v2.3h4.5v-21.8
				h-4.5v7.9c-1.1-1.3-2.6-2.4-5-2.4c-3.8,0-7.3,2.9-7.3,8.3v0.1C416.2,549.6,419.8,552.5,423.5,552.5L423.5,552.5z M424.7,548.6
				c-2.1,0-3.9-1.8-3.9-4.4v-0.1c0-2.7,1.8-4.4,3.9-4.4c2.1,0,3.9,1.8,3.9,4.4v0.1C428.6,546.9,426.8,548.6,424.7,548.6L424.7,548.6
				z M436.9,552.2h4.5v-21.8h-4.5V552.2z M452.9,552.6c2.9,0,5.1-1.1,6.6-3l-2.6-2.3c-1.3,1.2-2.4,1.6-3.9,1.6c-2,0-3.5-1.1-3.9-3.1
				h11.2c0-0.4,0.1-0.8,0.1-1.2c0-4.5-2.5-8.7-7.8-8.7c-4.7,0-7.9,3.8-7.9,8.3v0.1C444.5,549.2,448.1,552.6,452.9,552.6L452.9,552.6
				z M449,542.9c0.4-2.1,1.6-3.4,3.5-3.4c1.9,0,3.1,1.4,3.4,3.4H449z"/>
		</g>
	</g>
</g>
</svg>
