<?xml version="1.0" encoding="utf-8"?>
<!-- Generator: Adobe Illustrator 19.2.1, SVG Export Plug-In . SVG Version: 6.00 Build 0)  -->
<svg version="1.1" id="Layer_1" xmlns="http://www.w3.org/2000/svg" xmlns:xlink="http://www.w3.org/1999/xlink" x="0px" y="0px"
	 viewBox="0 0 800 600" enable-background="new 0 0 800 600" xml:space="preserve">
<g>
	<path fill="#FFFFFF" d="M296,509.7l0,21.7c0,5.5,2.7,8.2,8.2,8.2h2.4c5.5,0,8.2-2.7,8.2-8.2v-10.6h12.7v10.1c0,13.9-7,21-21,21H304
		c-13.9,0-21-7-21-19.3v-52.9c0-15.5,7-22.6,21-22.6h2.7c13.9,0,21,7,21,21l0,31.7H296z M296.1,497.1h18.5v-19.7
		c0-5.5-2.7-8.2-8.2-8.2h-2.1c-5.5,0-8.2,2.7-8.2,8.2V497.1z"/>
	<path fill="#FFFFFF" d="M336.2,458h13.1v6c3.1-3.3,8.4-7,16-7c11.2,0,16.7,7.4,16.7,18.4v58c0,11-5.5,18.4-16.7,18.4
		c-7.6,0-12.9-3.6-16-6.7V575h-13.1V458z M349.2,534.6c3.6,3.1,7.7,4.8,12,4.8c4.8,0,7.6-2.2,7.6-7.6v-55c0-5.3-2.7-7.6-7.6-7.6
		c-4.3,0-8.4,1.7-12,4.8V534.6z"/>
	<path fill="#FFFFFF" d="M389.7,518.5c0-11.5,3.8-16.1,13.7-19.6l17.5-6v-15.5c0-5.5-2.7-8.4-8.2-8.4h-2.1c-5.5,0-8.2,2.9-8.2,8.4
		v13.1h-12.7v-12.6c0-13.9,7-21,21-21h2.5c13.9,0,21,7,21,21v72.8H421v-5.8c-3.6,3.4-8.4,6.9-16,6.9c-10.5,0-15.3-6-15.3-16.3V518.5
		z M421,535.1v-30.6l-11.9,4.5c-4.8,1.9-6.4,4.3-6.4,9.6v14.1c0,4.5,2.2,6.7,6.4,6.7C413.1,539.4,416.7,538,421,535.1z"/>
	<path fill="#FFFFFF" d="M486.8,550.7h-13.1V476c0-4.6-2.2-6.7-6.2-6.7c-3.6,0-7.4,1.4-12,4.6v76.8h-13.1V458h13.1v6
		c3.8-3.6,8.8-7,16-7c6.7,0,11.2,2.7,13.6,7.6c4.6-4,10.1-7.6,17.7-7.6c10.1,0,15.3,6.2,15.3,16.3v77.5H505V476
		c0-4.6-2.2-6.7-6.2-6.7c-3.6,0-7.4,1.4-12,4.6V550.7z"/>
	<path fill="#FFFFFF" d="M266.3,466.5v17.1l-22,20.9l22,20.6v17.4L232.8,511v-12.5L266.3,466.5z"/>
	<path fill="#FFFFFF" d="M568.2,498.4V511l-33.5,31.5v-17.4l22-20.6l-22-20.9v-17.1L568.2,498.4z"/>
</g>
<g>
	<g enable-background="new    ">
		<path fill="#FFFFFF" d="M398,167.9c0.1-0.9,0.1-2.3,0.1-3.4v-16h2.4v8.3h0.1c0.8-1.5,2.4-2.4,4.5-2.4c3.3,0,5.6,2.7,5.6,6.8
			c0,4.7-3,7.1-6,7.1c-1.9,0-3.5-0.7-4.4-2.5h-0.1l-0.1,2.2H398z M400.5,162.6c0,0.3,0.1,0.6,0.1,0.9c0.5,1.7,1.9,2.8,3.6,2.8
			c2.5,0,4-2.1,4-5.1c0-2.7-1.4-4.9-3.9-4.9c-1.6,0-3.2,1.1-3.7,3c-0.1,0.3-0.1,0.6-0.1,1V162.6z"/>
		<path fill="#FFFFFF" d="M414.4,154.6l2.9,7.8c0.3,0.9,0.6,1.9,0.8,2.7h0.1c0.2-0.8,0.5-1.8,0.9-2.8l2.6-7.8h2.6l-3.6,9.5
			c-1.7,4.6-2.9,6.9-4.6,8.3c-1.2,1-2.4,1.5-3,1.6l-0.6-2c0.6-0.2,1.4-0.6,2.1-1.2c0.7-0.5,1.5-1.5,2-2.7c0.1-0.3,0.2-0.4,0.2-0.6
			c0-0.1-0.1-0.3-0.2-0.6l-4.9-12.2H414.4z"/>
	</g>
	<g enable-background="new    ">
		<path fill="#FFFFFF" d="M433.7,146.7c1.4-0.3,3.4-0.5,5.3-0.5c3,0,4.9,0.5,6.2,1.8c1.1,1,1.7,2.4,1.7,4.1c0,2.8-1.8,4.7-4.1,5.5
			v0.1c1.7,0.6,2.7,2.1,3.2,4.3c0.7,3,1.2,5.1,1.7,5.9h-2.9c-0.4-0.6-0.8-2.5-1.4-5.1c-0.6-3-1.8-4.1-4.3-4.2h-2.6v9.3h-2.8V146.7z
			 M436.4,156.5h2.8c3,0,4.9-1.6,4.9-4.1c0-2.8-2-4-5-4c-1.3,0-2.3,0.1-2.7,0.3V156.5z"/>
		<path fill="#FFFFFF" d="M454.2,148.1c0,1-0.7,1.7-1.8,1.7c-1,0-1.7-0.8-1.7-1.7c0-1,0.7-1.8,1.8-1.8
			C453.5,146.3,454.2,147.1,454.2,148.1z M451.1,167.9v-15.5h2.8v15.5H451.1z"/>
		<path fill="#FFFFFF" d="M458.2,165c0.8,0.5,2.3,1.1,3.7,1.1c2,0,3-1,3-2.3c0-1.3-0.8-2.1-2.9-2.8c-2.8-1-4.1-2.5-4.1-4.4
			c0-2.5,2-4.5,5.3-4.5c1.6,0,2.9,0.5,3.8,1l-0.7,2c-0.6-0.4-1.7-0.9-3.2-0.9c-1.7,0-2.6,1-2.6,2.1c0,1.3,0.9,1.9,2.9,2.6
			c2.7,1,4.1,2.4,4.1,4.7c0,2.7-2.1,4.6-5.8,4.6c-1.7,0-3.3-0.4-4.3-1.1L458.2,165z"/>
		<path fill="#FFFFFF" d="M474.3,148.1c0,1-0.7,1.7-1.8,1.7c-1,0-1.7-0.8-1.7-1.7c0-1,0.7-1.8,1.8-1.8
			C473.7,146.3,474.3,147.1,474.3,148.1z M471.2,167.9v-15.5h2.8v15.5H471.2z"/>
		<path fill="#FFFFFF" d="M478.7,156.6c0-1.6,0-2.9-0.1-4.2h2.5l0.2,2.6h0.1c0.8-1.5,2.6-2.9,5.1-2.9c2.1,0,5.5,1.3,5.5,6.6v9.2H489
			V159c0-2.5-0.9-4.6-3.6-4.6c-1.8,0-3.3,1.3-3.8,2.9c-0.1,0.4-0.2,0.8-0.2,1.3v9.3h-2.8V156.6z"/>
		<path fill="#FFFFFF" d="M509.7,152.4c-0.1,1.1-0.1,2.4-0.1,4.2v9c0,3.5-0.7,5.7-2.2,7.1c-1.5,1.4-3.7,1.8-5.6,1.8
			c-1.9,0-3.9-0.4-5.1-1.3l0.7-2.1c1,0.6,2.6,1.2,4.5,1.2c2.9,0,5-1.5,5-5.4v-1.7h-0.1c-0.9,1.4-2.5,2.6-4.9,2.6
			c-3.8,0-6.6-3.3-6.6-7.5c0-5.2,3.4-8.2,7-8.2c2.7,0,4.2,1.4,4.8,2.7h0.1l0.1-2.3H509.7z M506.8,158.5c0-0.5,0-0.9-0.2-1.3
			c-0.5-1.6-1.9-3-3.9-3c-2.7,0-4.6,2.3-4.6,5.8c0,3,1.5,5.6,4.6,5.6c1.7,0,3.3-1.1,3.9-2.9c0.2-0.5,0.2-1,0.2-1.5V158.5z"/>
		<path fill="#FFFFFF" d="M514,164.5c1.2,0.8,3.1,1.4,5,1.4c2.8,0,4.5-1.5,4.5-3.7c0-2-1.1-3.2-4.1-4.3c-3.5-1.2-5.7-3.1-5.7-6.1
			c0-3.4,2.8-5.8,7-5.8c2.2,0,3.8,0.5,4.8,1.1l-0.8,2.3c-0.7-0.4-2.1-1-4.1-1c-2.9,0-4.1,1.8-4.1,3.2c0,2,1.3,3,4.3,4.2
			c3.6,1.4,5.5,3.2,5.5,6.3c0,3.3-2.5,6.2-7.5,6.2c-2.1,0-4.3-0.6-5.5-1.4L514,164.5z"/>
		<path fill="#FFFFFF" d="M533.3,148v4.4h4v2.1h-4v8.3c0,1.9,0.5,3,2.1,3c0.7,0,1.3-0.1,1.6-0.2l0.1,2.1c-0.5,0.2-1.4,0.4-2.5,0.4
			c-1.3,0-2.4-0.4-3-1.2c-0.8-0.8-1.1-2.2-1.1-4v-8.4h-2.4v-2.1h2.4v-3.7L533.3,148z"/>
		<path fill="#FFFFFF" d="M549,167.9l-0.2-1.9h-0.1c-0.9,1.2-2.5,2.3-4.7,2.3c-3.1,0-4.7-2.2-4.7-4.4c0-3.7,3.3-5.8,9.3-5.7v-0.3
			c0-1.3-0.4-3.6-3.5-3.6c-1.4,0-2.9,0.5-4,1.2l-0.6-1.9c1.3-0.8,3.1-1.4,5.1-1.4c4.7,0,5.9,3.2,5.9,6.3v5.8c0,1.3,0.1,2.7,0.3,3.7
			H549z M548.6,160c-3.1-0.1-6.6,0.5-6.6,3.5c0,1.8,1.2,2.7,2.7,2.7c2,0,3.3-1.3,3.7-2.6c0.1-0.3,0.2-0.6,0.2-0.9V160z"/>
		<path fill="#FFFFFF" d="M566.9,167.3c-0.7,0.4-2.4,0.9-4.4,0.9c-4.7,0-7.7-3.2-7.7-7.9c0-4.8,3.3-8.2,8.3-8.2
			c1.7,0,3.1,0.4,3.9,0.8l-0.6,2.2c-0.7-0.4-1.7-0.7-3.3-0.7c-3.6,0-5.5,2.6-5.5,5.8c0,3.6,2.3,5.8,5.4,5.8c1.6,0,2.7-0.4,3.4-0.8
			L566.9,167.3z"/>
		<path fill="#FFFFFF" d="M573,159.5L573,159.5c0.5-0.5,1-1.2,1.4-1.8l4.5-5.3h3.4l-6,6.4l6.8,9.1h-3.4l-5.3-7.4l-1.4,1.6v5.8h-2.8
			v-22.7h2.8V159.5z"/>
	</g>
	<path fill="#389F8A" d="M392.5,72.5h-9.3c-0.9,0-1.1-0.2-1.1-1.1v-8.6c0-1.1-0.2-2-0.9-2.7s-1.6-0.9-2.7-0.9h-3.6
		c-1.1,0-2,0.2-2.7,0.9c-0.7,0.7-0.9,1.6-0.9,2.7v8.6c0,0.9-0.2,1.1-1.1,1.1h-3.6c-1.1,0-2,0.2-2.7,0.9c-0.7,0.7-0.9,1.6-0.9,2.7
		v2.9c0,1.1,0.2,2,0.9,2.7c0.7,0.7,1.6,0.9,2.7,0.9h3.6c0.9,0,1.1,0.2,1.1,1.1v24.6c0,5.9,1.6,10.6,4.3,14c2.9,3.4,7.4,5,13.8,5h3.6
		c1.1,0,2-0.2,2.7-0.9c0.7-0.7,0.9-1.6,0.9-2.7v-2.9c0-1.1-0.2-2-0.9-2.7c-0.7-0.7-1.6-0.9-2.7-0.9h-2.5c-3.2,0-5.2-0.9-6.3-2.5
		c-1.1-1.6-1.6-3.8-1.6-6.8V84c0-0.9,0.2-1.1,1.1-1.1h9.3c1.1,0,2-0.2,2.7-0.9c0.7-0.7,0.9-1.6,0.9-2.7v-2.9c0-1.1-0.2-2-0.9-2.7
		C394.5,73,393.6,72.5,392.5,72.5 M489.7,72.5h-18.5c-3.6,0-6.8,0.7-9.5,1.8c-2.9,1.1-5.4,2.9-7.4,5c-2.3,2.3-3.6,4.5-4.7,7.4
		c-1.1,2.9-1.6,5.9-1.6,9v10.8c0,3.4,0.5,6.3,1.6,9c0.9,2.9,2.3,5.2,4.1,7c1.6,2,3.8,3.6,6.1,4.5s5,1.6,7.9,1.6
		c3.2,0,6.1-0.5,8.1-1.6c2.3-0.9,4.1-2.3,5.2-3.8c0.2-0.2,0.7-0.5,0.9-0.5c0.2,0.2,0.5,0.5,0.5,0.9c0,0.9,0.2,1.6,0.9,2.5
		c0.7,0.7,1.6,1.1,2.7,1.1h3.6c1.1,0,2-0.2,2.7-0.9s0.9-1.6,0.9-2.7V76.1c0-1.1-0.2-2-0.9-2.7C492,73,491.1,72.5,489.7,72.5
		 M482.5,104.8c0,1.6-0.2,3.4-0.9,5c-0.5,1.6-1.4,2.9-2.3,4.3c-0.9,1.4-2.3,2.3-4.1,3.2c-1.6,0.9-3.6,1.1-5.6,1.1
		c-3.4,0-5.9-0.9-7.7-2.9c-1.8-2-2.9-4.5-2.9-7.7V95.6c0-3.6,1.1-6.5,3.4-9c2.3-2.5,5.4-3.8,9.5-3.8h9.3c0.9,0,1.1,0.2,1.1,1.1
		L482.5,104.8L482.5,104.8z M543.9,114.5c-1.6-1.6-3.4-1.6-5.2,0c-0.9,0.9-2.3,1.6-3.6,2.7c-1.6,0.9-3.4,1.4-5.4,1.4
		c-2.3,0-3.8-0.2-5.4-0.9c-1.4-0.7-2.5-1.6-3.4-2.5c-0.9-0.9-1.6-2.3-1.8-3.8c-0.2-1.6-0.5-2.9-0.5-4.5V93.5c0-3.2,0.9-5.9,2.7-8.1
		c1.6-2.3,4.5-3.6,8.6-3.6c1.6,0,3.2,0.2,4.7,0.9c1.6,0.7,2.7,1.4,3.6,2.3c1.8,1.6,3.6,1.6,5,0.2l2.3-2.3c0.7-0.7,1.1-1.6,1.1-2.7
		c0-0.9-0.2-1.8-1.1-2.7c-1.6-1.6-3.8-3.2-6.5-4.3s-5.6-1.8-9-1.8c-3.6,0-6.5,0.7-9.3,1.8c-2.7,1.1-5,2.9-7,4.7c-2,2-3.4,4.3-4.5,7
		c-0.9,2.7-1.6,5.4-1.6,8.4v13.3c0,2.9,0.5,5.9,1.4,8.4c0.9,2.7,2.3,5,4.1,7c1.8,2,4.1,3.6,7,4.7c2.7,1.1,6.1,1.8,9.5,1.8
		c3.8,0,7.2-0.9,10.2-2.3c2.9-1.6,5-3.2,6.5-4.7c0.7-0.9,0.9-1.6,1.1-2.7c0-0.9-0.2-1.6-0.9-2.5L543.9,114.5L543.9,114.5z
		 M435.6,72.5h-4.5c-6.1,0-11.1,1.8-14.4,5.6c-3.6,3.8-5.2,8.6-5.2,14.7V124c0,1.1,0.2,2,0.9,2.7s1.6,0.9,2.7,0.9h3.6
		c1.1,0,2-0.2,2.7-0.9c0.7-0.7,0.9-1.6,0.9-2.7V93.3c0-3.2,0.9-5.6,2.3-7.4c1.6-2,3.8-2.9,7-2.9h3.6c1.1,0,2-0.2,2.7-0.9
		c0.7-0.7,0.9-1.6,0.9-2.7v-2.9c0-1.1-0.2-2-0.9-2.7C437.4,73,436.7,72.5,435.6,72.5 M592.5,77.7c-2-2-4.1-3.6-7-4.5
		c-2.7-1.1-5.9-1.6-9.3-1.6c-3.6,0-6.5,0.5-9.3,1.6c-2.7,1.1-5,2.7-7,4.5c-1.8,2-3.2,4.3-4.1,7c-0.9,2.7-1.4,5.4-1.4,8.4v14.4
		c0,2.9,0.5,5.6,1.6,8.4c0.9,2.7,2.7,5,4.5,6.8c2,2,4.3,3.6,7,4.5c2.9,1.1,5.9,1.6,9.5,1.6c4.5,0,8.4-0.9,11.5-2.7
		c3.2-1.6,5.6-3.6,7.4-5.6c0.7-0.9,0.9-1.6,0.9-2.7c0-0.9-0.2-1.6-0.9-2.5l-2.3-2.3c-0.7-0.7-1.6-1.1-2.5-1.1
		c-0.9,0-1.8,0.2-2.7,1.4c-0.9,0.9-2.3,2-4.1,3.2c-1.6,1.1-4.1,1.6-7.4,1.6c-4.1,0-7-0.9-8.6-3.2c-1.8-2.3-2.9-4.7-2.9-7.9v-2.3
		c0-0.9,0.2-1.1,1.1-1.1h27.8c1.1,0,2-0.2,2.7-0.9c0.7-0.7,0.9-1.6,0.9-2.7v-7.2c0-2.9-0.5-5.9-1.6-8.4
		C595.8,81.8,594.3,79.8,592.5,77.7 M587.3,93.5c0,0.9-0.2,1.1-1.1,1.1h-19.4c-0.9,0-1.1-0.2-1.1-1.1v-0.7c0-3.2,0.9-5.9,2.3-7.9
		c1.6-2.3,4.3-3.4,8.1-3.4c4.1,0,7,1.1,8.6,3.4c1.6,2.3,2.7,4.7,2.7,7.9L587.3,93.5L587.3,93.5z"/>
	<circle fill="#389F8A" cx="273.3" cy="101.7" r="72.2"/>
	<path fill="none" stroke="#FFFFFF" stroke-width="0.7484" stroke-miterlimit="10" d="M274.4,59l-49,47.4 M274.4,59l49,47.4
		 M306,89.9l-49,47.2 M242.6,90.1l16.7,15.1 M290,105.3l16.7,15.1"/>
	<circle fill="#FFFFFF" cx="274.4" cy="59" r="9"/>
	<circle fill="#FFFFFF" cx="242.3" cy="90.1" r="9"/>
	<circle fill="#FFFFFF" cx="225.4" cy="106.4" r="9"/>
	<circle fill="#FFFFFF" cx="259.3" cy="105.3" r="9"/>
	<circle fill="#FFFFFF" cx="290" cy="105" r="9"/>
	<circle fill="#FFFFFF" cx="323.4" cy="106.4" r="9"/>
	<circle fill="#FFFFFF" cx="306" cy="89.9" r="9"/>
	<circle fill="#FFFFFF" cx="306.7" cy="120.4" r="9"/>
	<circle fill="#FFFFFF" cx="257" cy="137.1" r="9"/>
	<circle fill="#389F8A" cx="274.4" cy="59" r="4.5"/>
	<circle fill="#389F8A" cx="242.3" cy="90.1" r="4.5"/>
	<circle fill="#389F8A" cx="225.4" cy="106.4" r="4.5"/>
	<circle fill="#389F8A" cx="259.3" cy="105.3" r="4.5"/>
	<circle fill="#389F8A" cx="290" cy="105" r="4.5"/>
	<circle fill="#389F8A" cx="323.4" cy="106.4" r="4.5"/>
	<circle fill="#389F8A" cx="306" cy="89.9" r="4.5"/>
	<circle fill="#389F8A" cx="306.7" cy="120.4" r="4.5"/>
	<circle fill="#389F8A" cx="257" cy="137.1" r="4.5"/>
</g>
<g>
	<rect x="104.9" y="258.7" fill="none" width="590.2" height="123.2"/>
	<g>
		<path fill="#FFFFFF" d="M120.4,274h12.7c11.6,0,16.8,3.7,16.8,11.1c0,6.5-5.1,10.9-15.4,10.9h-14.1V274z M105,347.4h31.2
			c16.4,0,32.8-5.9,32.8-24.7c0-11.1-7.8-19.7-18.7-20.9v-0.2c8.9-2.7,15-9.2,15-19c0-15.8-13.5-21.8-26.6-21.8H105V347.4z
			 M120.4,309.2h14.8c12.5,0,18.4,3.2,18.4,12.2c0,11.4-11,12.7-19,12.7h-14.2V309.2z"/>
		<path fill="#FFFFFF" d="M179,258.7h14.7v88.7H179V258.7z"/>
		<path fill="#FFFFFF" d="M218.2,318c0-9.2,6.5-17.6,17.3-17.6c10.8,0,17.2,8.4,17.2,17.6c0,9.2-6.5,17.6-17.2,17.6
			C224.7,335.6,218.2,327.2,218.2,318z M203.5,318c0,18.5,14.2,30.8,31.9,30.8c17.7,0,31.9-12.4,31.9-30.8
			c0-18.5-14.2-30.8-31.9-30.8C217.7,287.2,203.5,299.5,203.5,318z"/>
		<path fill="#FFFFFF" d="M288.7,318c0-9.2,6.5-17.6,17.3-17.6c10.8,0,17.3,8.4,17.3,17.6c0,9.2-6.5,17.6-17.3,17.6
			C295.2,335.6,288.7,327.2,288.7,318z M274,318c0,18.5,14.2,30.8,31.9,30.8c17.7,0,31.9-12.4,31.9-30.8c0-18.5-14.2-30.8-31.9-30.8
			C288.2,287.2,274,299.5,274,318z"/>
		<path fill="#FFFFFF" d="M346.9,288.6h13.9v9.2h0.2c2.6-5.5,8.2-10.6,18-10.6c9.1,0,15.3,3.5,18.4,10.9
			c4.3-7.5,10.5-10.9,19.3-10.9c15.7,0,21.2,11.1,21.2,25.2v35h-14.7v-33.3c0-7.3-2.2-13.7-10.9-13.7c-9.2,0-12.6,7.6-12.6,15.2
			v31.8h-14.7v-35c0-7.2-2.9-12-10-12c-9.7,0-13.5,7.1-13.5,14.9v32.1h-14.7V288.6z"/>
		<path fill="#FFFFFF" d="M498.5,318c0,9.2-6.5,17.6-17.3,17.6c-10.8,0-17.3-8.4-17.3-17.6c0-9.2,6.5-17.6,17.3-17.6
			C492,300.4,498.5,308.8,498.5,318z M449.8,347.4h13.9v-8.8h0.2c4.3,7.1,12,10.3,20.2,10.3c18.1,0,29-13.5,29-30.8
			c0-17.4-11.6-30.8-28.4-30.8c-11,0-16.9,5.1-19.9,8.9h-0.4v-37.4h-14.7V347.4z"/>
		<path fill="#FFFFFF" d="M534.5,312.1c1.1-8.4,6.5-14,15.2-14c9.2,0,14.8,5.4,14.9,14H534.5z M579.3,323.1v-4
			c0-20.4-11.1-31.9-27.5-31.9c-17.7,0-31.9,12.4-31.9,30.8c0,18.5,14.2,30.8,31.9,30.8c9.3,0,18-3.3,24.8-11.7l-10.5-7.9
			c-3.7,4.5-8.4,7.9-15.8,7.9c-8.2,0-14.8-5.3-15.8-14H579.3z"/>
		<path fill="#FFFFFF" d="M588.9,288.6h14.7v9.3h0.2c3.2-6.7,9.7-10.8,17.4-10.8c1.8,0,3.5,0.4,5.3,0.9v14.2
			c-2.4-0.6-4.8-1.1-7.1-1.1c-13.8,0-15.8,11.6-15.8,14.8v31.4h-14.7V288.6z"/>
		<path fill="#FFFFFF" d="M659.3,300.4c10.6,0,17.4,7.1,17.4,17.2c0,9.8-6.6,17.3-17.5,17.3c-9.9,0-17.3-7.7-17.3-17
			C641.9,307.5,649,300.4,659.3,300.4z M676.6,288.6v8.8h-0.2c-4.3-7.1-12-10.3-20.2-10.3c-18.1,0-29,13.5-29,30.8
			c0,16.6,11.6,30.1,29.2,30.1c7.3,0,14.9-2.8,19.2-8.6h0.2v4.3c0,11.6-4.4,19.7-18.6,19.7c-8.2,0-14.3-3.1-20.2-8.4l-8.8,12
			c8.3,7.3,18.2,9.7,29.1,9.7c22.9,0,33.2-13.5,33.2-34.6v-53.5H676.6z"/>
	</g>
</g>
</svg>
