<?xml version="1.0" encoding="utf-8"?>
<!-- Generator: Adobe Illustrator 19.2.1, SVG Export Plug-In . SVG Version: 6.00 Build 0)  -->
<svg version="1.1" id="Layer_5" xmlns="http://www.w3.org/2000/svg" xmlns:xlink="http://www.w3.org/1999/xlink" x="0px" y="0px"
	 viewBox="0 0 800 600" enable-background="new 0 0 800 600" xml:space="preserve">
<g>
	<g>
		<g>
			<path fill="#FFFFFF" d="M375.6,73.9c-1,0.5-3.2,1.2-6,1.2c-6.3,0-10.3-4.2-10.3-10.6c0-6.4,4.4-11,11.1-11c2.2,0,4.2,0.6,5.2,1.1
				l-0.9,2.9c-0.9-0.5-2.3-1-4.4-1c-4.8,0-7.3,3.6-7.3,7.8c0,4.8,3.1,7.8,7.2,7.8c2.1,0,3.6-0.5,4.6-1L375.6,73.9z"/>
			<path fill="#FFFFFF" d="M380,44.2h3.8v13h0.1c0.6-1.1,1.5-2.1,2.7-2.7c1.1-0.6,2.4-1,3.9-1c2.8,0,7.2,1.7,7.2,8.8v12.3h-3.8V62.7
				c0-3.3-1.2-6.1-4.8-6.1c-2.4,0-4.3,1.7-5.1,3.7c-0.2,0.6-0.3,1.1-0.3,1.8v12.5H380L380,44.2L380,44.2z"/>
			<path fill="#FFFFFF" d="M403.8,60.4c0-2.4,0-4.5-0.2-6.5h3.3l0.2,4.1h0.1c0.9-2.8,3.3-4.5,5.8-4.5c0.4,0,0.7,0,1,0.1v3.6
				c-0.4-0.1-0.8-0.1-1.3-0.1c-2.7,0-4.5,2-5.1,4.8c-0.1,0.5-0.1,1.2-0.1,1.8v11h-3.8V60.4z"/>
			<path fill="#FFFFFF" d="M436.1,64.1c0,7.7-5.4,11-10.3,11c-5.6,0-9.9-4.1-9.9-10.7c0-6.9,4.6-11,10.3-11
				C432.1,53.5,436.1,57.8,436.1,64.1z M419.7,64.3c0,4.5,2.6,8,6.3,8c3.6,0,6.3-3.4,6.3-8c0-3.5-1.8-7.9-6.2-7.9
				C421.6,56.3,419.7,60.4,419.7,64.3z"/>
			<path fill="#FFFFFF" d="M440.8,59.5c0-2.2-0.1-3.9-0.2-5.6h3.3l0.2,3.4h0.1c1.2-2,3.1-3.8,6.6-3.8c2.8,0,4.9,1.7,5.8,4.2h0.1
				c0.6-1.2,1.5-2.1,2.4-2.7c1.2-0.9,2.6-1.5,4.5-1.5c2.8,0,6.9,1.8,6.9,9v12.2h-3.7V62.9c0-4-1.5-6.4-4.5-6.4
				c-2.2,0-3.8,1.6-4.5,3.4c-0.2,0.6-0.3,1.2-0.3,1.9v12.8h-3.7V62.2c0-3.3-1.5-5.7-4.3-5.7c-2.3,0-4.1,1.9-4.7,3.8
				c-0.2,0.5-0.3,1.2-0.3,1.8v12.5h-3.7V59.5z"/>
			<path fill="#FFFFFF" d="M478.7,64.9c0.1,5.1,3.3,7.2,7.1,7.2c2.7,0,4.4-0.5,5.7-1.1l0.7,2.7c-1.3,0.6-3.6,1.3-6.9,1.3
				c-6.4,0-10.2-4.2-10.2-10.5c0-6.3,3.7-11.1,9.7-11.1c6.8,0,8.6,5.9,8.6,9.7c0,0.8,0,1.3-0.1,1.8L478.7,64.9L478.7,64.9z
				 M489.7,62.2c0-2.4-1-6.1-5.2-6.1c-3.9,0-5.5,3.5-5.8,6.1H489.7z"/>
		</g>
	</g>
	<circle id="circle47_1_" fill="#FFFFFF" cx="327.4" cy="63.7" r="24.9"/>
	<path id="path49_1_" fill-opacity="0.1" d="M343.3,68.2c0-8.8-7.1-15.9-15.9-15.9c-8.8,0-15.9,7.1-15.9,15.9h4.5
		c0-6.3,5.1-11.3,11.3-11.3s11.3,5.1,11.3,11.3"/>
	<circle id="circle51_1_" fill-opacity="0.1" cx="328.6" cy="66.9" r="8.6"/>
	
		<linearGradient id="circle53_2_" gradientUnits="userSpaceOnUse" x1="-81.1281" y1="110.7392" x2="-81.1281" y2="110.9658" gradientTransform="matrix(82 0 0 82 6979.9478 -9026.2129)">
		<stop  offset="0" style="stop-color:#81B4E0"/>
		<stop  offset="1" style="stop-color:#0C5A94"/>
	</linearGradient>
	<circle id="circle53_1_" fill="url(#circle53_2_)" cx="327.4" cy="63.7" r="9.3"/>
	
		<linearGradient id="path55_2_" gradientUnits="userSpaceOnUse" x1="-59.2416" y1="151.4542" x2="-59.2416" y2="172.0711" gradientTransform="matrix(1 0 0 1 387.4769 -113.1361)">
		<stop  offset="0" style="stop-color:#F06B59"/>
		<stop  offset="1" style="stop-color:#DF2227"/>
	</linearGradient>
	<path id="path55_1_" fill="url(#path55_2_)" d="M350.1,52.4c-6.2-12.5-21.5-17.7-34-11.4c-3.9,1.9-7.3,4.9-9.7,8.5l10.2,17.7
		c-1.9-6,1.4-12.3,7.4-14.2c1-0.3,2.1-0.5,3.2-0.5"/>
	
		<linearGradient id="path57_2_" gradientUnits="userSpaceOnUse" x1="-79.2308" y1="194.8653" x2="-68.8093" y2="177.6471" gradientTransform="matrix(1 0 0 1 387.4769 -113.1361)">
		<stop  offset="0" style="stop-color:#388B41"/>
		<stop  offset="1" style="stop-color:#4CB749"/>
	</linearGradient>
	<path id="path57_1_" fill="url(#path57_2_)" d="M306.4,49.4c-7.8,11.6-4.7,27.4,6.9,35.2c3.6,2.4,7.8,3.9,12.1,4.2l10.6-18.1
		c-4,4.8-11.1,5.5-15.9,1.5c-1.6-1.4-2.9-3.1-3.5-5.2"/>
	
		<linearGradient id="path59_2_" gradientUnits="userSpaceOnUse" x1="-44.3188" y1="196.6968" x2="-55.42" y2="169.9631" gradientTransform="matrix(1 0 0 1 387.4769 -113.1361)">
		<stop  offset="0" style="stop-color:#E4B022"/>
		<stop  offset="0.3" style="stop-color:#FCD209"/>
	</linearGradient>
	<path id="path59_1_" fill="url(#path59_2_)" d="M325.4,88.8c14,1.1,26.2-9.4,27.2-23.4c0.3-4.5-0.5-9-2.5-13.1h-22.9
		c6.3,0,11.3,5.1,11.3,11.4c0,2.5-0.9,5-2.4,7"/>
	
		<linearGradient id="path61_2_" gradientUnits="userSpaceOnUse" x1="-75.7804" y1="179.5477" x2="-75.7804" y2="161.4232" gradientTransform="matrix(1 0 0 1 387.4769 -113.1361)">
		<stop  offset="0" style="stop-color:#000000;stop-opacity:0.15"/>
		<stop  offset="0.3" style="stop-color:#000000;stop-opacity:6.000000e-02"/>
		<stop  offset="1" style="stop-color:#000000;stop-opacity:3.000000e-02"/>
	</linearGradient>
	<path id="path61_1_" fill="url(#path61_2_)" d="M306.4,49.4l10.2,17.7c-0.8-2.5-0.6-5.3,0.5-7.7l-10.2-10.6"/>
	
		<linearGradient id="path63_2_" gradientUnits="userSpaceOnUse" x1="-50.7633" y1="185.4006" x2="-63.2238" y2="198.0877" gradientTransform="matrix(1 0 0 1 387.4769 -113.1361)">
		<stop  offset="0" style="stop-color:#000000;stop-opacity:0.15"/>
		<stop  offset="0.3" style="stop-color:#000000;stop-opacity:6.000000e-02"/>
		<stop  offset="1" style="stop-color:#000000;stop-opacity:3.000000e-02"/>
	</linearGradient>
	<path id="path63_1_" fill="url(#path63_2_)" d="M325.4,88.8l10.6-18.1c-1.7,2-4,3.4-6.6,3.9L325,88.8"/>
	
		<linearGradient id="path65_2_" gradientUnits="userSpaceOnUse" x1="-50.9438" y1="189.0506" x2="-49.1315" y2="171.1534" gradientTransform="matrix(1 0 0 1 387.4769 -113.1361)">
		<stop  offset="0" style="stop-color:#000000;stop-opacity:0.15"/>
		<stop  offset="0.3" style="stop-color:#000000;stop-opacity:6.000000e-02"/>
		<stop  offset="1" style="stop-color:#000000;stop-opacity:3.000000e-02"/>
	</linearGradient>
	<path id="path65_1_" fill="url(#path65_2_)" d="M350.1,52.4h-22.9c3.4,0,6.7,1.6,8.8,4.3l14.5-3.6"/>
</g>
<g>
	<path fill="#CB3837" d="M319.8,129.9h157.8v52.6h-78.9v8.8h-35.1v-8.8h-43.8V129.9z M328.6,173.7h17.5v-26.3h8.8v26.3h8.8v-35.1
		h-35.1V173.7z M372.4,138.7v43.8H390v-8.8h17.5v-35.1H372.4z M390,147.4h8.8V165H390V147.4z M416.3,138.7v35.1h17.5v-26.3h8.8v26.3
		h8.8v-26.3h8.8v26.3h8.8v-35.1H416.3z"/>
	<polygon fill="#FFFFFF" points="328.6,173.7 346.1,173.7 346.1,147.4 354.9,147.4 354.9,173.7 363.7,173.7 363.7,138.7 
		328.6,138.7 	"/>
	<path fill="#FFFFFF" d="M372.4,138.7v43.8H390v-8.8h17.5v-35.1H372.4z M398.7,165H390v-17.5h8.8V165z"/>
	<polygon fill="#FFFFFF" points="416.3,138.7 416.3,173.7 433.8,173.7 433.8,147.4 442.6,147.4 442.6,173.7 451.3,173.7 
		451.3,147.4 460.1,147.4 460.1,173.7 468.9,173.7 468.9,138.7 	"/>
</g>
<g id="Variants">
	<g>
		<g>
			<g>
				<path fill="#FFFFFF" d="M442.4,435.1h-4.5c-1.3,0-2.2,0.2-2.7,0.8c-0.5,0.5-0.8,1.4-0.8,2.7v15.6h-2.7v-15.8
					c0-1.2,0.2-2.5,0.9-3.5c1.2-1.8,3.4-2.2,5-2.2h4.9L442.4,435.1L442.4,435.1z"/>
			</g>
			<g>
				<path fill="#FFFFFF" d="M424.9,451.7c-1.3,0-2.2-0.2-2.7-0.8c-0.5-0.5-0.8-1.4-0.8-2.6v-13.2h5.7v-2.4h-5.7v-6.5h-2.7v22.3
					c0,1.2,0.2,2.5,0.9,3.5c1.2,1.8,3.4,2.2,5,2.2h4.9v-2.4H424.9z"/>
			</g>
			<path fill="#FFFFFF" d="M354.1,426.2v6.4h-5.7c-3.4,0-5.5,1-6.8,2.3c-2,1.9-2,4.7-2,5c0,0.3,0,6.6,0,6.9c0,0.3,0,3.1,2,5
				c1.3,1.3,3.4,2.3,6.8,2.3h2.5c1.6,0,3.9-0.4,5-2.2c0.6-1,0.8-2.3,0.9-3.5v-22.3H354.1z M353.3,451c-0.5,0.5-1.4,0.8-2.7,0.8h-2.5
				c-2.2,0-3.6-0.6-4.5-1.5c-1-1-1.4-2.3-1.4-3.3v-7.1c0-1,0.3-2.3,1.4-3.3c0.9-0.8,2.2-1.5,4.5-1.5h5.9v13.2
				C354.1,449.6,353.8,450.4,353.3,451z"/>
			<path fill="#FFFFFF" d="M466.9,436.6c0.9-0.8,2.2-1.5,4.5-1.5h6.5v-2.4h-6.2c-3.4,0-5.5,1-6.8,2.3c-2,1.9-2,4.7-2,5
				c0,0.2,0,6.7,0,6.9c0,0.3,0,3.1,2,5c1.3,1.3,3.4,2.3,6.8,2.3h6.2v-2.4h-6.5c-2.2,0-3.6-0.6-4.5-1.5c-1-1-1.4-2.3-1.4-3.3v-7.1
				C465.5,438.9,465.9,437.5,466.9,436.6z"/>
			<path fill="#FFFFFF" d="M415.9,440c0-0.3,0-3.1-2-5c-1.3-1.3-3.4-2.3-6.8-2.3h-6v2.4h6.3c2.2,0,3.6,0.6,4.5,1.5
				c1,1,1.4,2.3,1.4,3.3v2.1h-8.6c-1.6,0-3.9,0.4-5,2.2c-0.6,1-0.8,2.3-0.9,3.5v0.9c0,1.2,0.2,2.5,0.9,3.5c1.2,1.8,3.4,2.2,5,2.2
				h5.5c1.6,0,3.9-0.4,5-2.2c0.6-1,0.8-2.3,0.9-3.5C415.9,448.5,415.9,441.4,415.9,440z M412.4,451c-0.5,0.5-1.4,0.8-2.7,0.8h-4.8
				c-1.3,0-2.2-0.2-2.7-0.8c-0.5-0.5-0.8-1.4-0.8-2.6v-0.6c0-1.2,0.3-2.1,0.8-2.6c0.5-0.5,1.4-0.8,2.7-0.8h8.3v4
				C413.2,449.6,412.9,450.4,412.4,451z"/>
			<path fill="#FFFFFF" d="M460.6,440c0-0.3,0-3.1-2-5c-1.3-1.3-3.4-2.3-6.8-2.3h-6v2.4h6.3c2.2,0,3.6,0.6,4.5,1.5
				c1,1,1.4,2.3,1.4,3.3v2.1h-8.6c-1.6,0-3.9,0.4-5,2.2c-0.6,1-0.8,2.3-0.9,3.5v0.9c0,1.2,0.2,2.5,0.9,3.5c1.2,1.8,3.4,2.2,5,2.2
				h5.5c1.6,0,3.9-0.4,5-2.2c0.6-1,0.8-2.3,0.9-3.5C460.6,448.5,460.6,441.4,460.6,440z M457.1,451c-0.5,0.5-1.4,0.8-2.7,0.8h-4.8
				c-1.3,0-2.2-0.2-2.7-0.8c-0.5-0.5-0.8-1.4-0.8-2.6v-0.6c0-1.2,0.3-2.1,0.8-2.6c0.5-0.5,1.4-0.8,2.7-0.8h8.3v4
				C457.9,449.6,457.7,450.4,457.1,451z"/>
			<polygon fill="#FFFFFF" points="378.3,432.7 375.5,432.7 368.6,450.5 361.8,432.7 359,432.7 367.2,454.2 364.7,460.6 
				367.6,460.6 			"/>
			<path fill="#FFFFFF" d="M396.6,440c0-0.3,0-3.1-2-5c-1.3-1.2-3.2-2.2-6.5-2.3h-0.3c-3.2,0-5.2,1.1-6.5,2.3c-2,1.9-2,4.7-2,5
				c0,0.3,0,13.1,0,14.2h2.7v-14.3c0-1,0.3-2.3,1.3-3.3c0.8-0.8,2.4-1.4,4.6-1.5c2.1,0,3.7,0.7,4.6,1.5c1,1,1.3,2.3,1.3,3.3v14.3
				h2.7C396.6,453.1,396.6,440.3,396.6,440z"/>
			<path fill="#FFFFFF" d="M494.6,434.9c-1.3-1.2-3.2-2.2-6.5-2.3h-0.3c-3.2,0-5.2,1.1-6.5,2.3c-2,1.9-2,4.7-2,5v6.9
				c0,0.3,0,3.1,2,5c1.3,1.2,3.2,2.2,6.5,2.3h6.4v-2.5h-6.2c-2.1,0-3.7-0.7-4.6-1.5c-1-1-1.3-2.3-1.3-3.3v-2.5h14.5V440
				C496.6,439.7,496.6,436.9,494.6,434.9z M482.1,442v-2.1c0-1,0.3-2.3,1.3-3.3c0.8-0.8,2.4-1.4,4.6-1.5c2.1,0,3.7,0.7,4.6,1.5
				c1,1,1.3,2.3,1.3,3.3v2.1H482.1z"/>
		</g>
		<g>
			<path fill="#1496FF" d="M311.9,429.1c-0.4,2.3-1,5.8-1.3,9.3c-0.5,6.2-0.2,10.3-0.2,10.3l-8.7,8.3c0,0-0.7-4.6-1-9.9
				c-0.2-3.2-0.3-6.1-0.3-7.8c0-0.1,0-0.2,0-0.3c0-0.1,0.1-1.3,1.3-2.4C303,435.5,312.1,428.4,311.9,429.1z"/>
			<path fill="#1284EA" d="M311.9,429.1c-0.4,2.3-1,5.8-1.3,9.3c0,0-9.7-1.2-10.2,1.2c0-0.1,0.2-1.5,1.3-2.6
				C303,435.8,312.1,428.4,311.9,429.1z"/>
			<path fill="#B4DC00" d="M300.5,439c0,0.2,0,0.3,0,0.5c0.1-0.4,0.3-0.7,0.6-1.2c0.7-0.9,1.9-1.2,2.3-1.2c2.4-0.3,5.8-0.7,9.4-0.8
				c6.2-0.2,10.3,0.3,10.3,0.3l8.7-8.3c0,0-4.6-0.9-9.8-1.5c-3.4-0.4-6.4-0.6-8.1-0.7c-0.1,0-1.3-0.1-2.5,0.9
				c-1.2,1.2-7.5,7.1-10,9.5C300.4,437.7,300.5,438.9,300.5,439z"/>
			<path fill="#6F2DA8" d="M331.5,449.6c-2.4,0.3-5.8,0.7-9.4,0.8c-6.2,0.2-10.3-0.3-10.3-0.3l-8.7,8.3c0,0,4.6,0.9,9.8,1.5
				c3.2,0.4,6,0.6,7.7,0.7c0.1,0,0.3-0.1,0.4-0.1s1.3-0.2,2.5-1.3C324.8,458,332.2,449.5,331.5,449.6z"/>
			<path fill="#591F91" d="M331.5,449.6c-2.4,0.3-5.8,0.7-9.4,0.8c0,0,0.7,9.7-1.7,10.1c0.1,0,1.7-0.1,2.9-1.2
				C324.5,458.2,332.2,449.5,331.5,449.6z"/>
			<path fill="#73BE28" d="M321,460.6c-0.2,0-0.3,0-0.5,0c0.4-0.1,0.7-0.2,1.2-0.6c0.9-0.7,1.2-1.8,1.3-2.3c0.4-2.3,1-5.8,1.3-9.3
				c0.5-6.2,0.2-10.3,0.2-10.3l8.7-8.3c0,0,0.6,4.6,1,9.9c0.2,3.4,0.3,6.4,0.3,8.1c0,0.1,0.1,1.3-1,2.4c-1.2,1.2-7.5,7.1-10,9.5
				C322.3,460.8,321.1,460.6,321,460.6z"/>
		</g>
	</g>
</g>
<g>
	<path fill="#FFFFFF" d="M297.2,340.7h2.6v27.8h-2.6V340.7z"/>
	<path fill="#FFFFFF" d="M304.9,340.7h11.7c4.7,0,8.9,1.6,8.9,6.8c0,2.9-1.9,5.6-4.8,6.2v0.1c3.6,0.5,5.9,3.1,5.9,6.8
		c0,2.6-0.9,7.9-10,7.9h-11.7V340.7z M307.5,352.8h9.1c4.2,0,6.3-2.1,6.3-4.7c0-3.5-2.1-5.2-6.3-5.2h-9.1V352.8z M307.5,366.2h9.1
		c3.9,0,7.3-1.2,7.3-5.7c0-3.6-2.6-5.4-7.3-5.4h-9.1V366.2z"/>
	<path fill="#FFFFFF" d="M330,340.7h3.9l9.6,24.3l9.6-24.3h3.9v27.8h-2.6v-24h-0.1l-9.5,24h-2.5l-9.5-24h-0.1v24H330V340.7z"/>
	<path fill="#FFFFFF" d="M397.6,368.4h-6.1l-4.7-18.9h-0.1l-4.6,18.9h-6.2l-7.3-27.8h6.1l4.4,18.9h0.1l4.8-18.9h5.7l4.7,19.1h0.1
		l4.5-19.1h6L397.6,368.4z"/>
	<path fill="#FFFFFF" d="M403.8,354.5c0.3-5.1,4.9-6.7,9.4-6.7c4,0,8.8,0.9,8.8,5.7v10.5c0,1.8,0.2,3.7,0.7,4.5h-5.6
		c-0.2-0.6-0.4-1.3-0.4-1.9c-1.8,1.8-4.3,2.5-6.8,2.5c-3.8,0-6.8-1.9-6.8-6c0.1-9.1,13.6-4.2,13.4-8.7c0-2.3-1.6-2.7-3.6-2.7
		c-2.1,0-3.5,0.9-3.7,3H403.8z M416.6,358.6c-0.9,0.8-2.9,0.9-4.6,1.2c-1.7,0.3-3.3,0.9-3.3,3c0,2,1.6,2.6,3.4,2.6
		c4.3,0,4.5-3.4,4.5-4.6V358.6z"/>
	<path fill="#FFFFFF" d="M432.1,348.3h4v3.7h-4v10c0,1.9,0.5,2.3,2.3,2.3c0.6,0,1.2,0,1.7-0.2v4.3c-0.9,0.2-2.1,0.2-3.2,0.2
		c-3.4,0-6.3-0.7-6.3-4.8V352h-3.3v-3.7h3.3v-6h5.5V348.3z"/>
	<path fill="#FFFFFF" d="M442.9,361.9c0,2.4,2.1,3.4,4.2,3.4c1.6,0,3.6-0.6,3.6-2.6c0-1.7-2.3-2.3-6.3-3.1c-3.2-0.7-6.4-1.8-6.4-5.4
		c0-5.1,4.4-6.5,8.7-6.5c4.4,0,8.4,1.5,8.9,6.4h-5.2c-0.2-2.1-1.8-2.7-3.8-2.7c-1.2,0-3.1,0.2-3.1,1.9c0,2,3.1,2.3,6.3,3
		c3.2,0.7,6.4,1.9,6.4,5.6c0,5.3-4.6,7-9.2,7c-4.7,0-9.3-1.7-9.4-7.1H442.9z"/>
	<path fill="#FFFFFF" d="M468.3,347.8c6.3,0,10.4,4.2,10.4,10.6c0,6.4-4.1,10.6-10.4,10.6c-6.3,0-10.4-4.2-10.4-10.6
		C457.9,352,462,347.8,468.3,347.8z M468.3,364.8c3.8,0,4.9-3.2,4.9-6.4c0-3.2-1.1-6.5-4.9-6.5c-3.7,0-4.9,3.2-4.9,6.5
		C463.4,361.6,464.6,364.8,468.3,364.8z"/>
	<path fill="#FFFFFF" d="M480.7,348.3h5.2v2.8h0.1c1.4-2.3,3.8-3.3,6.1-3.3c5.9,0,7.3,3.3,7.3,8.3v12.4H494v-11.3
		c0-3.3-0.9-4.9-3.5-4.9c-3,0-4.3,1.7-4.3,5.8v10.5h-5.5V348.3z"/>
</g>
<g>
	<path fill="#FFFFFF" d="M438.1,538l2.1-7.6c0.6-2.1,1.1-4.8,1.6-6.9h0.1c0.5,2.1,1.2,4.8,1.8,6.9l2.2,7.6H438.1z M406.3,547
		c-0.3-1.3-0.7-2.6-1.1-3.9c-0.9-3.3-2.3-5.7-4.9-6.7v-0.2c2.4-0.9,4.9-2.9,5.9-5.8V547z M392.1,533.3h-3.3v-9.9
		c0.6-0.1,1.7-0.3,3.7-0.3c3.8,0.1,6.1,1.7,6.1,5C398.7,531.3,396.2,533.3,392.1,533.3 M493.8,517.3h-10.6l-3.8,11.9
		c-1.2,4-2.4,8.7-3.4,12.9h-0.2c-0.8-4.2-1.9-8.7-3-12.8l-3.5-12h-10.8l-1.9,29.4l-9-29.3H437l-8.9,29.3h-13.6v-8.5h13.2v-6.6h-13.2
		V524h14v-6.7h-22.2v6.6c-0.5-1.7-1.5-3-2.8-4.1c-2.6-2-6.4-2.8-11.8-2.8c-4,0-40.8,0.1-44.4,0.1c-8.6,0-13.8,4.4-13.8,10.4
		c0,5.2,3.9,8.4,10,10.5c4.4,1.5,6.1,2.8,6.1,5c0,2.3-2,3.8-5.8,3.8c-3.5,0-7.4-0.2-11.4-0.2c-1.2,3.3-2.9,5.3-5.2,6.7
		c8.5,0,12,0,16.1,0c10,0,14.7-5,14.7-11c0-5-3-8.3-9.5-10.6c-4.7-1.7-6.8-2.7-6.8-5c0-1.8,1.7-2.8,5.3-2.8c3.6,0,1.9,0,8.2,0h9.5
		v29.1h8v-29.1h7.9v29.1h8.2v-14.1h2.5c3.4,0.1,4.9,1.3,5.9,5.8c1.1,4.4,1.9,7.3,2.5,8.4h34.6l2.5-9.2h10.2l2.7,9.2h8.7l0,0h5.1
		l0.6-13.6c0.3-4.5,0.4-10,0.6-14.9h0.1c0.9,4.7,2.1,9.8,3.3,14.1l3.8,13.9h6.3l4.4-14c1.4-4.2,2.9-9.3,4-13.9h0.2
		c0,5.2,0.2,10.4,0.3,14.8l0.5,13.8h7.9L493.8,517.3z M330.5,517.8h-8.1v20.6c0,6.2-2.3,9.2-6.6,9.2c-4.2,0-6.5-3.1-6.5-9.2v-20.6
		h-8.1v19.9c0,11.3,5.3,16.2,14.4,16.2c9.4,0,15-5.2,15-16.1V517.8z"/>
</g>
<g>
	<path fill="#FFFFFF" d="M363.3,566.6c-0.2,0.1-0.4,0.2-0.7,0.2c-0.3,0-0.5-0.1-0.6-0.2c-0.2-0.1-0.2-0.4-0.2-0.7
		c-0.3,0.3-0.6,0.6-1,0.7c-0.4,0.1-0.8,0.2-1.2,0.2c-0.3,0-0.5,0-0.8-0.1c-0.2-0.1-0.5-0.2-0.6-0.3c-0.2-0.1-0.3-0.3-0.4-0.5
		c-0.1-0.2-0.2-0.5-0.2-0.8c0-0.3,0.1-0.6,0.2-0.8c0.1-0.2,0.3-0.4,0.5-0.5c0.2-0.1,0.4-0.2,0.7-0.3c0.2-0.1,0.5-0.1,0.8-0.2
		c0.3-0.1,0.5-0.1,0.8-0.1c0.2,0,0.5-0.1,0.6-0.1c0.2-0.1,0.3-0.1,0.4-0.2c0.1-0.1,0.2-0.2,0.2-0.4c0-0.2,0-0.4-0.1-0.5
		c-0.1-0.1-0.2-0.2-0.3-0.3c-0.1-0.1-0.3-0.1-0.4-0.1c-0.2,0-0.3,0-0.5,0c-0.4,0-0.8,0.1-1.1,0.2c-0.3,0.2-0.4,0.5-0.5,0.9h-1
		c0-0.4,0.1-0.7,0.2-0.9c0.1-0.3,0.3-0.5,0.6-0.6c0.2-0.2,0.5-0.3,0.8-0.3c0.3-0.1,0.6-0.1,1-0.1c0.3,0,0.5,0,0.8,0.1
		c0.3,0,0.5,0.1,0.7,0.2c0.2,0.1,0.4,0.3,0.5,0.5c0.1,0.2,0.2,0.5,0.2,0.9v3.1c0,0.2,0,0.4,0,0.5c0,0.1,0.1,0.2,0.3,0.2
		c0.1,0,0.2,0,0.3-0.1V566.6z M361.7,563.5c-0.1,0.1-0.2,0.1-0.4,0.2c-0.1,0-0.3,0.1-0.4,0.1c-0.2,0-0.3,0.1-0.5,0.1
		c-0.2,0-0.3,0-0.5,0.1c-0.2,0-0.3,0.1-0.5,0.1c-0.1,0-0.3,0.1-0.4,0.2c-0.1,0.1-0.2,0.2-0.3,0.3s-0.1,0.3-0.1,0.5
		c0,0.2,0,0.3,0.1,0.4c0.1,0.1,0.2,0.2,0.3,0.3c0.1,0.1,0.2,0.1,0.4,0.2c0.1,0,0.3,0,0.4,0c0.3,0,0.6,0,0.8-0.1
		c0.2-0.1,0.4-0.2,0.6-0.3c0.1-0.1,0.3-0.3,0.3-0.4c0.1-0.2,0.1-0.3,0.1-0.5V563.5z"/>
	<path fill="#FFFFFF" d="M364.2,560.6h0.9v1h0c0.2-0.4,0.5-0.7,0.8-0.8c0.3-0.2,0.7-0.3,1.2-0.3c0.4,0,0.7,0.1,1,0.2
		c0.3,0.1,0.5,0.3,0.6,0.5c0.2,0.2,0.3,0.4,0.3,0.7c0.1,0.3,0.1,0.6,0.1,0.9v4h-1v-4.1c0-0.4-0.1-0.7-0.3-0.9
		c-0.2-0.2-0.5-0.3-0.9-0.3c-0.3,0-0.6,0-0.8,0.1c-0.2,0.1-0.4,0.2-0.6,0.4c-0.1,0.2-0.3,0.4-0.3,0.6c-0.1,0.2-0.1,0.5-0.1,0.8v3.4
		h-1V560.6z"/>
	<path fill="#FFFFFF" d="M374.2,558.2h1.1v8.4h-1.1V558.2z"/>
	<path fill="#FFFFFF" d="M377.2,558.2h3c0.2,0,0.4,0,0.6,0c0.2,0,0.4,0,0.6,0c0.2,0,0.4,0,0.6,0.1c0.2,0,0.3,0.1,0.5,0.2
		c0.3,0.2,0.5,0.4,0.7,0.7c0.2,0.3,0.3,0.6,0.3,1.1c0,0.4-0.1,0.8-0.3,1.2c-0.2,0.3-0.5,0.6-0.9,0.7v0c0.5,0.1,0.9,0.3,1.2,0.7
		c0.3,0.4,0.4,0.8,0.4,1.3c0,0.3-0.1,0.6-0.2,0.9c-0.1,0.3-0.3,0.5-0.5,0.8c-0.2,0.2-0.5,0.4-0.8,0.5c-0.3,0.1-0.7,0.2-1.1,0.2h-4
		V558.2z M378.3,561.8h2.2c0.6,0,1.1-0.1,1.4-0.3c0.3-0.2,0.4-0.6,0.4-1c0-0.3,0-0.5-0.1-0.7c-0.1-0.2-0.2-0.3-0.4-0.4
		c-0.2-0.1-0.4-0.2-0.6-0.2c-0.2,0-0.4,0-0.7,0h-2.2V561.8z M378.3,565.7h2.8c0.5,0,0.9-0.1,1.1-0.4c0.3-0.3,0.4-0.6,0.4-1.1
		c0-0.3-0.1-0.5-0.2-0.7c-0.1-0.2-0.2-0.3-0.4-0.4c-0.2-0.1-0.4-0.2-0.6-0.2c-0.2,0-0.4-0.1-0.7-0.1h-2.5V565.7z"/>
	<path fill="#FFFFFF" d="M385.2,558.2h1.5l2.6,7l2.6-7h1.5v8.4h-1.1v-7h0l-2.6,7h-0.9l-2.6-7h0v7h-1.1V558.2z"/>
	<path fill="#FFFFFF" d="M404.5,560.8c-0.1-0.3-0.2-0.6-0.3-0.8c-0.1-0.2-0.3-0.4-0.5-0.6c-0.2-0.1-0.4-0.3-0.7-0.3
		c-0.3-0.1-0.5-0.1-0.8-0.1c-0.5,0-0.9,0.1-1.3,0.3c-0.4,0.2-0.6,0.4-0.9,0.8c-0.2,0.3-0.4,0.7-0.5,1.1c-0.1,0.4-0.2,0.8-0.2,1.3
		c0,0.5,0.1,0.9,0.2,1.4c0.1,0.4,0.3,0.8,0.5,1.1c0.2,0.3,0.5,0.6,0.9,0.8s0.8,0.3,1.3,0.3c0.4,0,0.7-0.1,1-0.2
		c0.3-0.1,0.5-0.3,0.7-0.5c0.2-0.2,0.4-0.5,0.5-0.8c0.1-0.3,0.2-0.6,0.2-1h1.1c-0.1,1-0.5,1.9-1.1,2.5c-0.6,0.6-1.5,0.9-2.5,0.9
		c-0.6,0-1.2-0.1-1.7-0.3c-0.5-0.2-0.9-0.5-1.2-0.9c-0.3-0.4-0.6-0.9-0.7-1.4c-0.2-0.5-0.2-1.1-0.2-1.7s0.1-1.2,0.3-1.7
		c0.2-0.5,0.4-1,0.8-1.4c0.3-0.4,0.7-0.7,1.2-0.9c0.5-0.2,1.1-0.3,1.7-0.3c0.4,0,0.9,0.1,1.2,0.2c0.4,0.1,0.7,0.3,1,0.5
		c0.3,0.2,0.6,0.5,0.8,0.8c0.2,0.3,0.3,0.7,0.4,1.2H404.5z"/>
	<path fill="#FFFFFF" d="M406.6,563.6c0-0.4,0.1-0.9,0.2-1.2c0.1-0.4,0.3-0.7,0.6-1c0.2-0.3,0.6-0.5,0.9-0.7
		c0.4-0.2,0.8-0.2,1.3-0.2c0.5,0,0.9,0.1,1.3,0.2c0.4,0.2,0.7,0.4,0.9,0.7c0.2,0.3,0.4,0.6,0.6,1c0.1,0.4,0.2,0.8,0.2,1.2
		c0,0.4-0.1,0.9-0.2,1.2c-0.1,0.4-0.3,0.7-0.6,1c-0.2,0.3-0.6,0.5-0.9,0.7c-0.4,0.2-0.8,0.2-1.3,0.2c-0.5,0-0.9-0.1-1.3-0.2
		c-0.4-0.2-0.7-0.4-0.9-0.7c-0.2-0.3-0.4-0.6-0.6-1C406.7,564.4,406.6,564,406.6,563.6z M407.7,563.6c0,0.4,0,0.7,0.1,1
		c0.1,0.3,0.2,0.5,0.4,0.7c0.2,0.2,0.4,0.3,0.6,0.4c0.2,0.1,0.5,0.2,0.7,0.2c0.3,0,0.5-0.1,0.7-0.2c0.2-0.1,0.4-0.2,0.6-0.4
		c0.2-0.2,0.3-0.4,0.4-0.7c0.1-0.3,0.1-0.6,0.1-1c0-0.4,0-0.7-0.1-1c-0.1-0.3-0.2-0.5-0.4-0.7s-0.4-0.3-0.6-0.4
		c-0.2-0.1-0.5-0.2-0.7-0.2c-0.3,0-0.5,0.1-0.7,0.2c-0.2,0.1-0.4,0.2-0.6,0.4s-0.3,0.4-0.4,0.7C407.7,562.9,407.7,563.2,407.7,563.6
		z"/>
	<path fill="#FFFFFF" d="M413.7,560.6h0.9v0.9h0c0.5-0.7,1.1-1,2-1c0.4,0,0.7,0.1,1,0.2c0.3,0.2,0.5,0.4,0.6,0.8
		c0.2-0.3,0.5-0.6,0.8-0.8s0.7-0.3,1.1-0.3c0.3,0,0.6,0,0.8,0.1c0.2,0.1,0.5,0.2,0.6,0.3c0.2,0.1,0.3,0.3,0.4,0.5
		c0.1,0.2,0.1,0.5,0.1,0.8v4.4h-1v-4c0-0.2,0-0.4,0-0.5c0-0.2-0.1-0.3-0.2-0.4c-0.1-0.1-0.2-0.2-0.4-0.3c-0.2-0.1-0.3-0.1-0.6-0.1
		c-0.5,0-0.9,0.1-1.2,0.4c-0.3,0.3-0.4,0.7-0.4,1.1v3.8h-1v-4c0-0.2,0-0.4-0.1-0.5c0-0.2-0.1-0.3-0.2-0.4c-0.1-0.1-0.2-0.2-0.4-0.3
		c-0.1-0.1-0.3-0.1-0.6-0.1c-0.3,0-0.5,0.1-0.7,0.2c-0.2,0.1-0.4,0.3-0.5,0.4c-0.1,0.2-0.2,0.3-0.3,0.5c-0.1,0.2-0.1,0.3-0.1,0.4
		v3.8h-1V560.6z"/>
	<path fill="#FFFFFF" d="M423.7,560.6h1v0.8h0c0.2-0.3,0.4-0.6,0.8-0.7c0.4-0.2,0.7-0.2,1.2-0.2c0.5,0,0.9,0.1,1.2,0.3
		c0.3,0.2,0.6,0.4,0.9,0.7c0.2,0.3,0.4,0.6,0.5,1c0.1,0.4,0.2,0.8,0.2,1.2c0,0.4-0.1,0.8-0.2,1.2c-0.1,0.4-0.3,0.7-0.5,1
		c-0.2,0.3-0.5,0.5-0.9,0.7c-0.3,0.2-0.8,0.3-1.2,0.3c-0.2,0-0.3,0-0.5,0c-0.2,0-0.4-0.1-0.5-0.2c-0.2-0.1-0.3-0.2-0.5-0.3
		c-0.2-0.1-0.3-0.3-0.4-0.5h0v3.1h-1V560.6z M428.4,563.5c0-0.3,0-0.6-0.1-0.8c-0.1-0.3-0.2-0.5-0.3-0.7c-0.2-0.2-0.3-0.4-0.6-0.5
		c-0.2-0.1-0.5-0.2-0.8-0.2c-0.3,0-0.6,0.1-0.9,0.2c-0.2,0.1-0.4,0.3-0.6,0.5c-0.1,0.2-0.3,0.5-0.3,0.7c-0.1,0.3-0.1,0.5-0.1,0.8
		c0,0.3,0,0.6,0.1,0.9c0.1,0.3,0.2,0.5,0.3,0.7c0.2,0.2,0.3,0.4,0.6,0.5c0.2,0.1,0.5,0.2,0.9,0.2c0.3,0,0.6-0.1,0.9-0.2
		c0.2-0.1,0.4-0.3,0.6-0.5c0.1-0.2,0.2-0.5,0.3-0.7C428.3,564.1,428.4,563.8,428.4,563.5z"/>
	<path fill="#FFFFFF" d="M435.9,566.6c-0.2,0.1-0.4,0.2-0.7,0.2c-0.3,0-0.5-0.1-0.6-0.2c-0.2-0.1-0.2-0.4-0.2-0.7
		c-0.3,0.3-0.6,0.6-1,0.7c-0.4,0.1-0.8,0.2-1.2,0.2c-0.3,0-0.5,0-0.8-0.1c-0.2-0.1-0.5-0.2-0.6-0.3c-0.2-0.1-0.3-0.3-0.4-0.5
		c-0.1-0.2-0.2-0.5-0.2-0.8c0-0.3,0.1-0.6,0.2-0.8c0.1-0.2,0.3-0.4,0.5-0.5c0.2-0.1,0.4-0.2,0.7-0.3c0.2-0.1,0.5-0.1,0.8-0.2
		c0.3-0.1,0.5-0.1,0.8-0.1c0.2,0,0.5-0.1,0.6-0.1c0.2-0.1,0.3-0.1,0.4-0.2c0.1-0.1,0.2-0.2,0.2-0.4c0-0.2,0-0.4-0.1-0.5
		c-0.1-0.1-0.2-0.2-0.3-0.3s-0.3-0.1-0.4-0.1c-0.2,0-0.3,0-0.5,0c-0.4,0-0.8,0.1-1.1,0.2c-0.3,0.2-0.4,0.5-0.5,0.9h-1
		c0-0.4,0.1-0.7,0.2-0.9c0.1-0.3,0.3-0.5,0.6-0.6c0.2-0.2,0.5-0.3,0.8-0.3c0.3-0.1,0.6-0.1,1-0.1c0.3,0,0.5,0,0.8,0.1
		c0.3,0,0.5,0.1,0.7,0.2c0.2,0.1,0.4,0.3,0.5,0.5c0.1,0.2,0.2,0.5,0.2,0.9v3.1c0,0.2,0,0.4,0,0.5c0,0.1,0.1,0.2,0.3,0.2
		c0.1,0,0.2,0,0.3-0.1V566.6z M434.3,563.5c-0.1,0.1-0.2,0.1-0.4,0.2c-0.1,0-0.3,0.1-0.4,0.1c-0.2,0-0.3,0.1-0.5,0.1
		c-0.2,0-0.3,0-0.5,0.1c-0.2,0-0.3,0.1-0.5,0.1c-0.1,0-0.3,0.1-0.4,0.2c-0.1,0.1-0.2,0.2-0.3,0.3c-0.1,0.1-0.1,0.3-0.1,0.5
		c0,0.2,0,0.3,0.1,0.4c0.1,0.1,0.2,0.2,0.3,0.3c0.1,0.1,0.2,0.1,0.4,0.2c0.1,0,0.3,0,0.4,0c0.3,0,0.6,0,0.8-0.1
		c0.2-0.1,0.4-0.2,0.6-0.3c0.1-0.1,0.3-0.3,0.3-0.4c0.1-0.2,0.1-0.3,0.1-0.5V563.5z"/>
	<path fill="#FFFFFF" d="M436.9,560.6h0.9v1h0c0.2-0.4,0.5-0.7,0.8-0.8c0.3-0.2,0.7-0.3,1.2-0.3c0.4,0,0.7,0.1,1,0.2
		c0.3,0.1,0.5,0.3,0.6,0.5c0.2,0.2,0.3,0.4,0.3,0.7c0.1,0.3,0.1,0.6,0.1,0.9v4h-1v-4.1c0-0.4-0.1-0.7-0.3-0.9
		c-0.2-0.2-0.5-0.3-0.9-0.3c-0.3,0-0.6,0-0.8,0.1c-0.2,0.1-0.4,0.2-0.6,0.4c-0.1,0.2-0.3,0.4-0.3,0.6c-0.1,0.2-0.1,0.5-0.1,0.8v3.4
		h-1V560.6z"/>
	<path fill="#FFFFFF" d="M445.8,567.4c-0.1,0.3-0.2,0.5-0.3,0.7c-0.1,0.2-0.2,0.4-0.4,0.5c-0.1,0.1-0.3,0.2-0.5,0.3
		c-0.2,0.1-0.4,0.1-0.6,0.1c-0.1,0-0.2,0-0.4,0c-0.1,0-0.2,0-0.3-0.1V568c0.1,0,0.2,0.1,0.3,0.1c0.1,0,0.2,0,0.3,0
		c0.2,0,0.4,0,0.5-0.1c0.1-0.1,0.2-0.2,0.3-0.4l0.4-1l-2.4-6h1.1l1.8,5h0l1.7-5h1.1L445.8,567.4z"/>
</g>
<g>
	<g>
		<path fill="#FFFFFF" d="M351.7,278.3h43.4c-0.1,0.9-0.9,3.4-1.3,4h-42.2V278.3z"/>
		<path fill="#FFFFFF" d="M351.7,240.8h42.2c0.4,0.7,1.2,3.1,1.3,4h-43.5V240.8z"/>
		<path fill="#FFFFFF" d="M359.5,263.3h30.1c1,0.7,2.8,2.9,3.5,4h-33.7V263.3z"/>
		<path fill="#FFFFFF" d="M383,274.8h12.6c0-1-0.4-3.2-0.7-4H383V274.8z"/>
		<path fill="#FFFFFF" d="M359.5,259.8h30.2c1-0.7,2.8-2.9,3.5-4h-33.7V259.8z"/>
		<path fill="#FFFFFF" d="M383,248.3h12.5c0,0.9-0.3,3.2-0.7,4H383V248.3z"/>
		<path fill="#FFFFFF" d="M351.7,285.8H391c-3.5,2.9-6.6,4-11.9,4h-3.9h-23.4V285.8z"/>
		<path fill="#FFFFFF" d="M351.7,237.2H391c-3.5-3-6.6-4-11.9-4h-3.9h-23.4V237.2z"/>
		<rect x="320.4" y="233.3" fill="#FFFFFF" width="27.4" height="4"/>
		<rect x="320.4" y="240.8" fill="#FFFFFF" width="27.4" height="4"/>
		<rect x="320.4" y="278.3" fill="#FFFFFF" width="27.4" height="4"/>
		<rect x="328.2" y="270.8" fill="#FFFFFF" width="11.7" height="4"/>
		<rect x="328.2" y="263.3" fill="#FFFFFF" width="11.7" height="4"/>
		<rect x="328.2" y="255.8" fill="#FFFFFF" width="11.7" height="4"/>
		<rect x="328.2" y="248.3" fill="#FFFFFF" width="11.7" height="4"/>
		<rect x="359.5" y="270.8" fill="#FFFFFF" width="11.7" height="4"/>
		<rect x="359.5" y="248.3" fill="#FFFFFF" width="11.7" height="4"/>
		<polygon fill="#FFFFFF" points="424.6,274.8 435.4,274.8 436.8,270.8 423.2,270.8 		"/>
		<polygon fill="#FFFFFF" points="422,267.3 438.1,267.3 439.4,263.3 420.6,263.3 		"/>
		<rect x="320.4" y="285.8" fill="#FFFFFF" width="27.4" height="4"/>
		<polygon fill="#FFFFFF" points="429.8,289.8 430.2,289.8 431.6,285.8 428.4,285.8 		"/>
		<rect x="406.5" y="270.8" fill="#FFFFFF" width="11.7" height="4"/>
		<rect x="406.5" y="263.3" fill="#FFFFFF" width="11.7" height="4"/>
		<rect x="398.7" y="285.8" fill="#FFFFFF" width="19.6" height="4"/>
		<rect x="398.7" y="278.3" fill="#FFFFFF" width="19.6" height="4"/>
		<polygon fill="#FFFFFF" points="427.2,282.3 432.8,282.3 434.2,278.3 425.8,278.3 		"/>
		<rect x="441.8" y="270.8" fill="#FFFFFF" width="11.7" height="4"/>
		<rect x="441.8" y="263.3" fill="#FFFFFF" width="11.7" height="4"/>
		<rect x="441.8" y="285.8" fill="#FFFFFF" width="19.6" height="4"/>
		<rect x="441.8" y="278.3" fill="#FFFFFF" width="19.6" height="4"/>
		<polygon fill="#FFFFFF" points="426.1,248.3 406.5,248.3 406.5,252.3 427.5,252.3 		"/>
		<polygon fill="#FFFFFF" points="431.3,255.8 430,259.4 428.8,255.8 406.5,255.8 406.5,259.8 418.3,259.8 418.3,256.6 419.4,259.8 
			440.7,259.8 441.8,256.6 441.8,256.7 441.8,256.7 441.8,259.8 453.5,259.8 453.5,255.8 		"/>
		<polygon fill="#FFFFFF" points="420.8,233.3 398.7,233.3 398.7,237.2 422.2,237.2 		"/>
		<polygon fill="#FFFFFF" points="423.4,240.8 398.7,240.8 398.7,244.7 424.9,244.7 		"/>
		<polygon fill="#FFFFFF" points="433.9,248.3 453.5,248.3 453.5,252.3 432.5,252.3 		"/>
		<polygon fill="#FFFFFF" points="439.2,233.3 461.3,233.3 461.3,237.2 437.8,237.2 		"/>
		<polygon fill="#FFFFFF" points="436.6,240.8 461.3,240.8 461.3,244.7 435.2,244.7 		"/>
	</g>
	<path fill="#FFFFFF" d="M465.6,286.8c0-1.7,1.4-3.1,3.1-3.1c1.7,0,3.1,1.4,3.1,3.1c0,1.7-1.4,3.1-3.1,3.1
		C467,290,465.6,288.6,465.6,286.8z M471.3,286.8c0-1.5-1.1-2.7-2.6-2.7c-1.5,0-2.6,1.2-2.6,2.7c0,1.5,1.1,2.7,2.6,2.7
		C470.2,289.5,471.3,288.4,471.3,286.8z M470.3,288.6h-0.5l-1-1.6H468v1.6h-0.4v-3.5h1.5c0.9,0,1.2,0.3,1.2,0.9c0,0.7-0.5,0.9-1.1,1
		L470.3,288.6z M468.6,286.6c0.5,0,1.2,0.1,1.2-0.6c0-0.5-0.4-0.6-0.9-0.6h-1v1.2H468.6z"/>
</g>
</svg>
